<?xml version="1.0" standalone="no"?>
<!DOCTYPE svg PUBLIC "-//W3C//DTD SVG 1.1//EN" "http://www.w3.org/Graphics/SVG/1.1/DTD/svg11.dtd" >
<svg xmlns="http://www.w3.org/2000/svg" xmlns:xlink="http://www.w3.org/1999/xlink" version="1.1">
<metadata>
Created by FontForge 20170910 at Mon Sep  3 16:56:10 2018
 By Jimmy Wärting
Copyright \\\(c\\\) 2010 by Ryoichi Tsunekawa. All rights reserved.
</metadata>
<defs>
<font id="BebasNeue-Regular" horiz-adv-x="387" >
  <font-face 
    font-family="Bebas Neue"
    font-weight="400"
    font-stretch="normal"
    units-per-em="1000"
    panose-1="0 0 5 0 0 0 0 0 0 0"
    ascent="750"
    descent="-250"
    x-height="700"
    cap-height="700"
    bbox="-79 -179 831 887"
    underline-thickness="50"
    underline-position="-110"
    unicode-range="U+0020-F6C3"
  />
<missing-glyph horiz-adv-x="548" 
d="M50 700h448v-700h-448v700zM232 358l-110 -281h55l92 236l92 -236h62l-110 281l103 264h-55l-86 -218l-85 218h-61z" />
    <glyph glyph-name=".notdef" horiz-adv-x="548" 
d="M50 700h448v-700h-448v700zM232 358l-110 -281h55l92 236l92 -236h62l-110 281l103 264h-55l-86 -218l-85 218h-61z" />
    <glyph glyph-name="A" unicode="A" horiz-adv-x="422" 
d="M119 141l-27 -141h-72l134 700h113l134 -700h-78l-27 141h-177zM129 208h156l-79 404z" />
    <glyph glyph-name="Aacute" unicode="&#xc1;" horiz-adv-x="422" 
d="M305 840l-92 -103h-55l70 103h77zM119 141l-27 -141h-72l134 700h113l134 -700h-78l-27 141h-177zM129 208h156l-79 404z" />
    <glyph glyph-name="Abreve" unicode="&#x102;" horiz-adv-x="422" 
d="M314 834c0 -62 -40 -101 -105 -101s-102 39 -103 101h47c2 -39 25 -52 56 -52c32 0 56 13 58 52h47zM119 141l-27 -141h-72l134 700h113l134 -700h-78l-27 141h-177zM129 208h156l-79 404z" />
    <glyph glyph-name="Acircumflex" unicode="&#xc2;" horiz-adv-x="422" 
d="M157 737h-68l86 100h70l86 -100h-68l-53 59zM119 141l-27 -141h-72l134 700h113l134 -700h-78l-27 141h-177zM129 208h156l-79 404z" />
    <glyph glyph-name="Adieresis" unicode="&#xc4;" horiz-adv-x="422" 
d="M182 827v-90h-68v90h68zM306 827v-90h-68v90h68zM119 141l-27 -141h-72l134 700h113l134 -700h-78l-27 141h-177zM129 208h156l-79 404z" />
    <glyph glyph-name="Agrave" unicode="&#xc0;" horiz-adv-x="422" 
d="M190 840l70 -103h-57l-93 103h80zM119 141l-27 -141h-72l134 700h113l134 -700h-78l-27 141h-177zM129 208h156l-79 404z" />
    <glyph glyph-name="Amacron" unicode="&#x100;" horiz-adv-x="422" 
d="M316 806v-56h-212v56h212zM119 141l-27 -141h-72l134 700h113l134 -700h-78l-27 141h-177zM129 208h156l-79 404z" />
    <glyph glyph-name="Aogonek" unicode="&#x104;" horiz-adv-x="422" 
d="M373 0c-24 -20 -37 -50 -36 -69c1 -21 18 -30 37 -30s29 4 40 9v-41c-20 -9 -37 -12 -62 -12c-44 0 -74 18 -75 56c-1 28 17 58 48 80l-29 148h-177l-27 -141h-72l134 700h113l134 -700h-28zM129 208h156l-79 404z" />
    <glyph glyph-name="Aring" unicode="&#xc5;" horiz-adv-x="422" 
d="M210 883c41 0 73 -32 73 -73c0 -42 -32 -73 -73 -73c-42 0 -74 31 -74 73c0 41 32 73 74 73zM210 846c-21 0 -37 -16 -37 -36c0 -21 16 -36 37 -36c20 0 36 15 36 36c0 20 -16 36 -36 36zM119 141l-27 -141h-72l134 700h113l134 -700h-78l-27 141h-177zM129 208h156
l-79 404z" />
    <glyph glyph-name="Atilde" unicode="&#xc3;" horiz-adv-x="422" 
d="M161 826c41 0 62 -30 92 -30c17 1 30 9 40 30l39 -27c-16 -39 -41 -57 -71 -57c-40 -1 -61 29 -92 29c-18 0 -31 -7 -42 -30l-39 27c16 41 42 57 73 58zM119 141l-27 -141h-72l134 700h113l134 -700h-78l-27 141h-177zM129 208h156l-79 404z" />
    <glyph glyph-name="AE" unicode="&#xc6;" horiz-adv-x="585" 
d="M516 390v-70h-161v-249h198v-71h-275v142h-143l-45 -142h-74l218 700h319v-71h-198v-239h161zM153 210h125v392z" />
    <glyph glyph-name="AEacute" unicode="&#x1fc;" horiz-adv-x="585" 
d="M410 844l-93 -103h-54l70 103h77zM516 390v-70h-161v-249h198v-71h-275v142h-143l-45 -142h-74l218 700h319v-71h-198v-239h161zM153 210h125v392z" />
    <glyph glyph-name="B" unicode="B" horiz-adv-x="392" 
d="M197 700c109 0 152 -52 152 -155v-33c0 -74 -21 -120 -82 -139c68 -19 94 -73 94 -150v-59c0 -105 -51 -164 -160 -164h-161v700h157zM178 403c62 0 94 20 94 93v41c0 62 -21 92 -77 92h-77v-226h60zM201 71c57 0 83 30 83 95v62c0 78 -31 104 -98 104h-68v-261h83z" />
    <glyph glyph-name="C" unicode="C" horiz-adv-x="380" 
d="M191 707c108 0 158 -70 158 -176v-63h-74v67c0 63 -25 101 -82 101c-56 0 -82 -38 -82 -101v-370c0 -63 26 -101 82 -101c57 0 82 38 82 101v91h74v-87c0 -106 -50 -176 -158 -176c-107 0 -157 70 -157 176v362c0 106 50 176 157 176z" />
    <glyph glyph-name="Cacute" unicode="&#x106;" horiz-adv-x="380" 
d="M293 845l-93 -103h-55l70 103h78zM191 707c108 0 158 -70 158 -176v-63h-74v67c0 63 -25 101 -82 101c-56 0 -82 -38 -82 -101v-370c0 -63 26 -101 82 -101c57 0 82 38 82 101v91h74v-87c0 -106 -50 -176 -158 -176c-107 0 -157 70 -157 176v362c0 106 50 176 157 176z
" />
    <glyph glyph-name="Ccaron" unicode="&#x10c;" horiz-adv-x="380" 
d="M141 841l52 -60l53 60h69l-87 -100h-69l-86 100h68zM191 707c108 0 158 -70 158 -176v-63h-74v67c0 63 -25 101 -82 101c-56 0 -82 -38 -82 -101v-370c0 -63 26 -101 82 -101c57 0 82 38 82 101v91h74v-87c0 -106 -50 -176 -158 -176c-107 0 -157 70 -157 176v362
c0 106 50 176 157 176z" />
    <glyph glyph-name="Ccedilla" unicode="&#xc7;" horiz-adv-x="380" 
d="M191 707c108 0 158 -70 158 -176v-63h-74v67c0 63 -25 101 -82 101c-56 0 -82 -38 -82 -101v-370c0 -63 26 -101 82 -101c57 0 82 38 82 101v91h74v-87c0 -100 -45 -169 -141 -175v-31c47 0 74 -19 74 -51c0 -40 -35 -64 -95 -64c-58 0 -92 23 -92 62v8h51v-7
c0 -16 15 -27 41 -29c27 0 43 12 43 32c0 19 -18 30 -49 30h-9v50c-94 7 -138 76 -138 175v362c0 106 50 176 157 176z" />
    <glyph glyph-name="Ccircumflex" unicode="&#x108;" horiz-adv-x="380" 
d="M140 740h-68l86 101h69l87 -101h-68l-53 59zM191 707c108 0 158 -70 158 -176v-63h-74v67c0 63 -25 101 -82 101c-56 0 -82 -38 -82 -101v-370c0 -63 26 -101 82 -101c57 0 82 38 82 101v91h74v-87c0 -106 -50 -176 -158 -176c-107 0 -157 70 -157 176v362
c0 106 50 176 157 176z" />
    <glyph glyph-name="Cdotaccent" unicode="&#x10a;" horiz-adv-x="380" 
d="M225 828v-90h-68v90h68zM191 707c108 0 158 -70 158 -176v-63h-74v67c0 63 -25 101 -82 101c-56 0 -82 -38 -82 -101v-370c0 -63 26 -101 82 -101c57 0 82 38 82 101v91h74v-87c0 -106 -50 -176 -158 -176c-107 0 -157 70 -157 176v362c0 106 50 176 157 176z" />
    <glyph glyph-name="D" unicode="D" horiz-adv-x="396" 
d="M204 700c109 0 159 -66 159 -174v-353c0 -107 -50 -173 -159 -173h-164v700h164zM203 71c56 0 83 35 83 99v360c0 64 -27 99 -84 99h-84v-558h85z" />
    <glyph glyph-name="Eth" unicode="&#xd0;" horiz-adv-x="396" 
d="M204 700c109 0 159 -66 159 -174v-353c0 -107 -50 -173 -159 -173h-164v318h-41v64h41v318h164zM196 318h-78v-247h85c56 0 83 35 83 99v360c0 64 -27 99 -84 99h-84v-247h78v-64z" />
    <glyph glyph-name="Dcaron" unicode="&#x10e;" horiz-adv-x="396" 
d="M135 839l53 -60l53 60h69l-87 -100h-69l-87 100h68zM204 700c109 0 159 -66 159 -174v-353c0 -107 -50 -173 -159 -173h-164v700h164zM203 71c56 0 83 35 83 99v360c0 64 -27 99 -84 99h-84v-558h85z" />
    <glyph glyph-name="Dcroat" unicode="&#x110;" horiz-adv-x="396" 
d="M204 700c109 0 159 -66 159 -174v-353c0 -107 -50 -173 -159 -173h-164v318h-39v63h39v319h164zM197 318h-79v-247h85c56 0 83 35 83 99v360c0 64 -27 99 -84 99h-84v-248h79v-63z" />
    <glyph glyph-name="E" unicode="E" horiz-adv-x="360" 
d="M289 390v-70h-171v-249h210v-71h-288v700h288v-71h-210v-239h171z" />
    <glyph glyph-name="Eacute" unicode="&#xc9;" horiz-adv-x="360" 
d="M283 842l-93 -103h-54l70 103h77zM289 390v-70h-171v-249h210v-71h-288v700h288v-71h-210v-239h171z" />
    <glyph glyph-name="Ebreve" unicode="&#x114;" horiz-adv-x="360" 
d="M287 840c-1 -63 -40 -101 -106 -101c-64 0 -102 38 -103 101h47c2 -39 25 -52 56 -52c33 0 56 13 59 52h47zM289 390v-70h-171v-249h210v-71h-288v700h288v-71h-210v-239h171z" />
    <glyph glyph-name="Ecaron" unicode="&#x11a;" horiz-adv-x="360" 
d="M131 839l52 -60l54 60h68l-87 -100h-69l-86 100h68zM289 390v-70h-171v-249h210v-71h-288v700h288v-71h-210v-239h171z" />
    <glyph glyph-name="Ecircumflex" unicode="&#xca;" horiz-adv-x="360" 
d="M130 739h-68l86 101h69l87 -101h-68l-54 60zM289 390v-70h-171v-249h210v-71h-288v700h288v-71h-210v-239h171z" />
    <glyph glyph-name="Edieresis" unicode="&#xcb;" horiz-adv-x="360" 
d="M155 829v-90h-68v90h68zM279 829v-90h-68v90h68zM289 390v-70h-171v-249h210v-71h-288v700h288v-71h-210v-239h171z" />
    <glyph glyph-name="Edotaccent" unicode="&#x116;" horiz-adv-x="360" 
d="M218 830v-90h-68v90h68zM289 390v-70h-171v-249h210v-71h-288v700h288v-71h-210v-239h171z" />
    <glyph glyph-name="Egrave" unicode="&#xc8;" horiz-adv-x="360" 
d="M167 845l69 -103h-57l-93 103h81zM289 390v-70h-171v-249h210v-71h-288v700h288v-71h-210v-239h171z" />
    <glyph glyph-name="Emacron" unicode="&#x112;" horiz-adv-x="360" 
d="M286 807v-55h-209v55h209zM289 390v-70h-171v-249h210v-71h-288v700h288v-71h-210v-239h171z" />
    <glyph glyph-name="Eogonek" unicode="&#x118;" horiz-adv-x="360" 
d="M289 390v-70h-171v-249h210v-71h-33c-25 -20 -37 -50 -37 -69c1 -21 18 -30 38 -30c19 0 28 4 39 9v-41c-20 -9 -37 -12 -61 -12c-45 0 -75 18 -76 56c0 32 24 64 61 87h-219v700h288v-71h-210v-239h171z" />
    <glyph glyph-name="F" unicode="F" horiz-adv-x="340" 
d="M279 374v-71h-161v-303h-78v700h278v-71h-200v-255h161z" />
    <glyph glyph-name="G" unicode="G" horiz-adv-x="383" 
d="M191 707c108 0 158 -70 158 -176v-60h-74v64c0 63 -25 101 -82 101c-56 0 -82 -38 -82 -101v-370c0 -63 26 -101 82 -101c57 0 82 38 82 101v140h-72v70h146v-206c0 -106 -50 -176 -158 -176c-107 0 -157 70 -157 176v362c0 106 50 176 157 176z" />
    <glyph glyph-name="Gbreve" unicode="&#x11e;" horiz-adv-x="383" 
d="M296 841c-1 -63 -40 -101 -105 -101s-103 38 -104 101h47c3 -39 25 -52 57 -52s55 13 58 52h47zM191 707c108 0 158 -70 158 -176v-60h-74v64c0 63 -25 101 -82 101c-56 0 -82 -38 -82 -101v-370c0 -63 26 -101 82 -101c57 0 82 38 82 101v140h-72v70h146v-206
c0 -106 -50 -176 -158 -176c-107 0 -157 70 -157 176v362c0 106 50 176 157 176z" />
    <glyph glyph-name="Gcircumflex" unicode="&#x11c;" horiz-adv-x="383" 
d="M139 742h-68l86 100h69l87 -100h-68l-54 59zM191 707c108 0 158 -70 158 -176v-60h-74v64c0 63 -25 101 -82 101c-56 0 -82 -38 -82 -101v-370c0 -63 26 -101 82 -101c57 0 82 38 82 101v140h-72v70h146v-206c0 -106 -50 -176 -158 -176c-107 0 -157 70 -157 176v362
c0 106 50 176 157 176z" />
    <glyph glyph-name="Gdotaccent" unicode="&#x120;" horiz-adv-x="383" 
d="M228 830v-90h-68v90h68zM191 707c108 0 158 -70 158 -176v-60h-74v64c0 63 -25 101 -82 101c-56 0 -82 -38 -82 -101v-370c0 -63 26 -101 82 -101c57 0 82 38 82 101v140h-72v70h146v-206c0 -106 -50 -176 -158 -176c-107 0 -157 70 -157 176v362c0 106 50 176 157 176z
" />
    <glyph glyph-name="H" unicode="H" horiz-adv-x="408" 
d="M118 315v-315h-78v700h78v-315h172v315h78v-700h-78v315h-172z" />
    <glyph glyph-name="Hbar" unicode="&#x126;" horiz-adv-x="415" 
d="M372 514v-514h-79v315h-172v-315h-78v514h-36v58h36v128h78v-128h172v128h79v-128h36v-58h-36zM293 514h-172v-129h172v129z" />
    <glyph glyph-name="Hcircumflex" unicode="&#x124;" horiz-adv-x="408" 
d="M151 741h-68l87 101h69l86 -101h-68l-53 59zM118 315v-315h-78v700h78v-315h172v315h78v-700h-78v315h-172z" />
    <glyph glyph-name="I" unicode="I" horiz-adv-x="158" 
d="M118 700v-700h-78v700h78z" />
    <glyph glyph-name="IJ" unicode="&#x132;" horiz-adv-x="412" 
d="M118 700v-700h-78v700h78zM376 173c0 -132 -66 -172 -151 -174c-18 0 -31 0 -48 1v71c13 -1 26 -1 38 -1c53 3 83 27 83 98v532h78v-527z" />
    <glyph glyph-name="Iacute" unicode="&#xcd;" horiz-adv-x="158" 
d="M100 842h78l-93 -103h-54zM40 700h78v-700h-78v700z" />
    <glyph glyph-name="Ibreve" unicode="&#x12c;" horiz-adv-x="158" 
d="M183 838c0 -63 -40 -102 -105 -102s-102 39 -103 102h47c2 -40 25 -53 56 -53c32 0 55 13 58 53h47zM40 700h78v-700h-78v700z" />
    <glyph glyph-name="Icircumflex" unicode="&#xce;" horiz-adv-x="158" 
d="M113 839l87 -100h-68l-53 59l-53 -59h-68l86 100h69zM40 700h78v-700h-78v700z" />
    <glyph glyph-name="Idieresis" unicode="&#xcf;" horiz-adv-x="158" 
d="M51 829v-90h-68v90h68zM175 829v-90h-68v90h68zM118 700v-700h-78v700h78z" />
    <glyph glyph-name="Idotaccent" unicode="&#x130;" horiz-adv-x="158" 
d="M113 829v-90h-68v90h68zM118 700v-700h-78v700h78z" />
    <glyph glyph-name="Igrave" unicode="&#xcc;" horiz-adv-x="158" 
d="M-25 842h81l70 -103h-58zM40 700h78v-700h-78v700z" />
    <glyph glyph-name="Imacron" unicode="&#x12a;" horiz-adv-x="158" 
d="M178 806v-56h-199v56h199zM118 700v-700h-78v700h78z" />
    <glyph glyph-name="Iogonek" unicode="&#x12e;" horiz-adv-x="158" 
d="M104 0c-25 -20 -37 -50 -36 -69c0 -21 17 -30 37 -30c19 0 28 4 40 9v-41c-20 -9 -38 -12 -62 -12c-44 0 -75 18 -75 56c-1 31 21 63 61 87h-29v700h78v-700h-14z" />
    <glyph glyph-name="Itilde" unicode="&#x128;" horiz-adv-x="158" 
d="M201 802c-15 -40 -40 -58 -71 -58c-39 0 -61 30 -92 29c-18 0 -31 -7 -42 -29l-39 26c17 41 43 58 74 58c40 0 62 -30 92 -29c17 0 29 8 40 29zM118 700v-700h-78v700h78z" />
    <glyph glyph-name="J" unicode="J" horiz-adv-x="255" 
d="M20 71c13 -1 27 -1 39 -1c51 3 82 27 82 98v532h77v-527c0 -131 -65 -172 -149 -174c-18 0 -32 -1 -49 1v71z" />
    <glyph glyph-name="Jcircumflex" unicode="&#x134;" horiz-adv-x="255" 
d="M114 739h-68l86 101h69l87 -101h-68l-53 60zM218 173c0 -131 -65 -172 -149 -174c-18 0 -32 -1 -49 1v71c13 -1 27 -1 39 -1c51 3 82 27 82 98v532h77v-527z" />
    <glyph glyph-name="K" unicode="K" horiz-adv-x="409" 
d="M159 304l-41 -69v-235h-78v700h78v-338l186 338h79l-177 -319l183 -381h-80z" />
    <glyph glyph-name="L" unicode="L" horiz-adv-x="337" 
d="M40 0v700h78v-629h200v-71h-278z" />
    <glyph glyph-name="Lacute" unicode="&#x139;" horiz-adv-x="337" 
d="M206 842l-93 -103h-54l70 103h77zM40 0v700h78v-629h200v-71h-278z" />
    <glyph glyph-name="Lcaron" unicode="&#x13d;" horiz-adv-x="337" 
d="M40 0v700h78v-629h200v-71h-278zM242 603h-29v97h75v-89l-38 -96h-33z" />
    <glyph glyph-name="Ldot" unicode="&#x13f;" horiz-adv-x="337" 
d="M40 0v700h78v-629h200v-71h-278zM272 400v-97h-75v97h75z" />
    <glyph glyph-name="Lslash" unicode="&#x141;" horiz-adv-x="348" 
d="M128 291v-220h201v-71h-278v208l-51 -50v72l51 50v420h77v-337l109 113v-72z" />
    <glyph glyph-name="M" unicode="M" horiz-adv-x="523" 
d="M298 1h-75l-116 557v-558h-68v700h109l115 -559l111 559h109v-700h-74v563z" />
    <glyph glyph-name="N" unicode="N" horiz-adv-x="409" 
d="M109 0h-70v700h99l162 -506v506h69v-700h-81l-179 566v-566z" />
    <glyph glyph-name="Nacute" unicode="&#x143;" horiz-adv-x="409" 
d="M306 842l-93 -102h-54l70 102h77zM109 0h-70v700h99l162 -506v506h69v-700h-81l-179 567v-567z" />
    <glyph glyph-name="Ncaron" unicode="&#x147;" horiz-adv-x="409" 
d="M152 842l53 -60l53 60h68l-86 -101h-69l-87 101h68zM109 0h-70v700h99l162 -506v506h69v-700h-81l-179 566v-566z" />
    <glyph glyph-name="Ntilde" unicode="&#xd1;" horiz-adv-x="409" 
d="M327 804c-16 -40 -41 -58 -71 -58c-40 -1 -61 30 -92 29c-18 0 -31 -7 -42 -29l-39 26c16 41 42 58 74 58c40 0 61 -30 91 -29c17 0 30 8 40 29zM109 0h-70v700h99l162 -506v506h69v-700h-81l-179 566v-566z" />
    <glyph glyph-name="O" unicode="O" horiz-adv-x="389" 
d="M34 531c0 107 53 176 160 176c108 0 161 -69 161 -176v-362c0 -106 -53 -176 -161 -176c-107 0 -160 70 -160 176v362zM111 165c0 -64 27 -101 83 -101c57 0 83 37 83 101v370c0 63 -26 101 -83 101c-56 0 -83 -38 -83 -101v-370z" />
    <glyph glyph-name="Oacute" unicode="&#xd3;" horiz-adv-x="389" 
d="M293 845l-93 -103h-54l70 103h77zM194 707c108 0 161 -69 161 -176v-362c0 -106 -53 -176 -161 -176c-107 0 -160 70 -160 176v362c0 107 53 176 160 176zM194 636c-56 0 -83 -38 -83 -101v-370c0 -64 27 -101 83 -101c57 0 83 37 83 101v370c0 63 -26 101 -83 101z" />
    <glyph glyph-name="Obreve" unicode="&#x14e;" horiz-adv-x="389" 
d="M299 841c-1 -63 -40 -101 -106 -101c-64 0 -102 38 -103 101h47c2 -39 25 -52 56 -52c33 0 56 13 59 52h47zM194 707c108 0 161 -69 161 -176v-362c0 -106 -53 -176 -161 -176c-107 0 -160 70 -160 176v362c0 107 53 176 160 176zM194 636c-56 0 -83 -38 -83 -101v-370
c0 -64 27 -101 83 -101c57 0 83 37 83 101v370c0 63 -26 101 -83 101z" />
    <glyph glyph-name="Ocircumflex" unicode="&#xd4;" horiz-adv-x="389" 
d="M141 741h-68l86 101h69l87 -101h-68l-54 59zM194 707c108 0 161 -69 161 -176v-362c0 -106 -53 -176 -161 -176c-107 0 -160 70 -160 176v362c0 107 53 176 160 176zM194 636c-56 0 -83 -38 -83 -101v-370c0 -64 27 -101 83 -101c57 0 83 37 83 101v370
c0 63 -26 101 -83 101z" />
    <glyph glyph-name="Odieresis" unicode="&#xd6;" horiz-adv-x="389" 
d="M166 831v-90h-68v90h68zM290 831v-90h-68v90h68zM194 707c108 0 161 -69 161 -176v-362c0 -106 -53 -176 -161 -176c-107 0 -160 70 -160 176v362c0 107 53 176 160 176zM194 636c-56 0 -83 -38 -83 -101v-370c0 -64 27 -101 83 -101c57 0 83 37 83 101v370
c0 63 -26 101 -83 101z" />
    <glyph glyph-name="Ograve" unicode="&#xd2;" horiz-adv-x="389" 
d="M174 845l69 -103h-57l-93 103h81zM194 707c108 0 161 -69 161 -176v-362c0 -106 -53 -176 -161 -176c-107 0 -160 70 -160 176v362c0 107 53 176 160 176zM194 636c-56 0 -83 -38 -83 -101v-370c0 -64 27 -101 83 -101c57 0 83 37 83 101v370c0 63 -26 101 -83 101z" />
    <glyph glyph-name="Ohungarumlaut" unicode="&#x150;" horiz-adv-x="389" 
d="M230 845l-80 -103h-49l57 103h72zM338 845l-81 -103h-49l57 103h73zM194 707c108 0 161 -69 161 -176v-362c0 -106 -53 -176 -161 -176c-107 0 -160 70 -160 176v362c0 107 53 176 160 176zM194 636c-56 0 -83 -38 -83 -101v-370c0 -64 27 -101 83 -101
c57 0 83 37 83 101v370c0 63 -26 101 -83 101z" />
    <glyph glyph-name="Omacron" unicode="&#x14c;" horiz-adv-x="389" 
d="M299 806v-55h-208v55h208zM194 707c108 0 161 -69 161 -176v-362c0 -106 -53 -176 -161 -176c-107 0 -160 70 -160 176v362c0 107 53 176 160 176zM194 636c-56 0 -83 -38 -83 -101v-370c0 -64 27 -101 83 -101c57 0 83 37 83 101v370c0 63 -26 101 -83 101z" />
    <glyph glyph-name="Oslash" unicode="&#xd8;" horiz-adv-x="389" 
d="M325 646c20 -30 30 -69 30 -115v-362c0 -106 -53 -176 -161 -176c-43 0 -77 11 -102 31l-19 -50l-34 13l25 67c-20 30 -30 69 -30 115v362c0 107 53 176 160 176c43 0 77 -11 103 -31l18 49l35 -13zM266 594c-13 27 -36 42 -72 42c-56 0 -83 -38 -83 -101v-355zM194 64
c57 0 83 37 83 101v353l-155 -413c13 -26 37 -41 72 -41z" />
    <glyph glyph-name="Oslashacute" unicode="&#x1fe;" horiz-adv-x="389" 
d="M219 845h78l-93 -103h-55zM325 646c20 -30 30 -69 30 -115v-362c0 -106 -53 -176 -161 -176c-43 0 -77 11 -102 31l-19 -50l-34 13l25 67c-20 30 -30 69 -30 115v362c0 107 53 176 160 176c43 0 77 -11 103 -31l18 49l35 -13zM266 594c-13 27 -36 42 -72 42
c-56 0 -83 -38 -83 -101v-355zM194 64c57 0 83 37 83 101v353l-155 -413c13 -26 37 -41 72 -41z" />
    <glyph glyph-name="Otilde" unicode="&#xd5;" horiz-adv-x="389" 
d="M318 802c-15 -40 -40 -57 -71 -57c-39 -1 -61 29 -92 29c-18 0 -31 -8 -42 -30l-39 27c17 41 43 57 74 58c40 0 62 -30 92 -30c17 1 29 9 40 30zM194 707c108 0 161 -69 161 -176v-362c0 -106 -53 -176 -161 -176c-107 0 -160 70 -160 176v362c0 107 53 176 160 176z
M194 636c-56 0 -83 -38 -83 -101v-370c0 -64 27 -101 83 -101c57 0 83 37 83 101v370c0 63 -26 101 -83 101z" />
    <glyph glyph-name="OE" unicode="&#x152;" horiz-adv-x="577" 
d="M508 390v-70h-161v-249h198v-71h-357c-108 0 -155 69 -155 174v352c0 105 47 174 155 174h357v-71h-198v-239h161zM189 629c-55 0 -78 -39 -78 -99v-360c0 -60 23 -99 78 -99h81v558h-81z" />
    <glyph glyph-name="P" unicode="P" horiz-adv-x="374" 
d="M193 700c110 0 157 -65 157 -171v-84c0 -111 -52 -169 -163 -169h-69v-276h-78v700h153zM187 346c58 0 86 27 86 94v93c0 64 -23 96 -80 96h-75v-283h69z" />
    <glyph glyph-name="Thorn" unicode="&#xde;" horiz-adv-x="377" 
d="M193 599c110 0 157 -65 157 -172v-83c0 -112 -52 -170 -163 -170h-69v-174h-78v700h78v-101h75zM187 245c58 0 86 26 86 94v93c0 63 -23 96 -80 96h-75v-283h69z" />
    <glyph glyph-name="Q" unicode="Q" horiz-adv-x="402" 
d="M194 707c108 0 161 -69 161 -176v-362c0 -43 -9 -81 -27 -109c8 -17 21 -22 43 -22h10v-69h-13c-44 0 -73 16 -89 45c-22 -13 -51 -21 -85 -21c-107 0 -160 70 -160 176v362c0 107 53 176 160 176zM194 636c-56 0 -83 -38 -83 -101v-370c0 -64 27 -101 83 -101
c57 0 83 37 83 101v370c0 63 -26 101 -83 101z" />
    <glyph glyph-name="R" unicode="R" horiz-adv-x="394" 
d="M196 700c110 0 156 -56 156 -160v-57c0 -77 -27 -125 -87 -144c64 -19 88 -71 88 -146v-109c0 -31 1 -60 14 -84h-79c-9 20 -13 38 -13 85v110c0 79 -37 104 -102 104h-55v-299h-78v700h156zM176 370c62 0 99 20 99 96v67c0 63 -23 96 -81 96h-76v-259h58z" />
    <glyph glyph-name="Racute" unicode="&#x154;" horiz-adv-x="394" 
d="M287 845l-93 -103h-54l69 103h78zM196 700c110 0 156 -56 156 -160v-57c0 -77 -27 -125 -87 -144c64 -19 88 -71 88 -146v-109c0 -31 1 -60 14 -84h-79c-9 20 -13 38 -13 85v110c0 79 -37 104 -102 104h-55v-299h-78v700h156zM176 370c62 0 99 20 99 96v67
c0 63 -23 96 -81 96h-76v-259h58z" />
    <glyph glyph-name="Rcaron" unicode="&#x158;" horiz-adv-x="394" 
d="M133 842l53 -60l53 60h68l-87 -100h-69l-86 100h68zM196 700c110 0 156 -56 156 -160v-57c0 -77 -27 -125 -87 -144c64 -19 88 -71 88 -146v-109c0 -31 1 -60 14 -84h-79c-9 20 -13 38 -13 85v110c0 79 -37 104 -102 104h-55v-299h-78v700h156zM176 370c62 0 99 20 99 96
v67c0 63 -23 96 -81 96h-76v-259h58z" />
    <glyph glyph-name="S" unicode="S" horiz-adv-x="372" 
d="M187 707c106 0 156 -69 156 -175v-19h-74v23c0 63 -24 100 -80 100s-80 -37 -80 -99c0 -157 235 -172 235 -369c0 -106 -51 -175 -158 -175s-157 69 -157 175v40h73v-44c0 -63 26 -100 82 -100s82 37 82 100c0 156 -234 171 -234 368c0 108 50 175 155 175z" />
    <glyph glyph-name="Sacute" unicode="&#x15a;" horiz-adv-x="372" 
d="M289 845l-93 -103h-54l69 103h78zM187 707c106 0 156 -69 156 -175v-19h-74v23c0 63 -24 100 -80 100s-80 -37 -80 -99c0 -157 235 -172 235 -369c0 -106 -51 -175 -158 -175s-157 69 -157 175v40h73v-44c0 -63 26 -100 82 -100s82 37 82 100c0 156 -234 171 -234 368
c0 108 50 175 155 175z" />
    <glyph glyph-name="Scaron" unicode="&#x160;" horiz-adv-x="372" 
d="M135 842l52 -60l53 60h69l-87 -100h-69l-86 100h68zM187 707c106 0 156 -69 156 -175v-19h-74v23c0 63 -24 100 -80 100s-80 -37 -80 -99c0 -157 235 -172 235 -369c0 -106 -51 -175 -158 -175s-157 69 -157 175v40h73v-44c0 -63 26 -100 82 -100s82 37 82 100
c0 156 -234 171 -234 368c0 108 50 175 155 175z" />
    <glyph glyph-name="Scedilla" unicode="&#x15e;" horiz-adv-x="372" 
d="M201 -37c47 0 74 -19 74 -51c0 -40 -35 -64 -95 -64c-58 0 -92 23 -92 62v8h51v-7c0 -16 15 -27 41 -29c27 0 43 12 43 32c0 19 -18 30 -49 30h-9v50c-94 8 -136 75 -136 174v40h73v-44c0 -63 26 -100 82 -100s82 37 82 100c0 156 -234 171 -234 368
c0 108 50 175 155 175c106 0 156 -69 156 -175v-19h-74v23c0 63 -24 100 -80 100s-80 -37 -80 -99c0 -157 235 -172 235 -369c0 -101 -46 -168 -143 -174v-31z" />
    <glyph glyph-name="Scircumflex" unicode="&#x15c;" horiz-adv-x="372" 
d="M135 741h-68l87 101h69l86 -101h-68l-53 59zM187 707c106 0 156 -69 156 -175v-19h-74v23c0 63 -24 100 -80 100s-80 -37 -80 -99c0 -157 235 -172 235 -369c0 -106 -51 -175 -158 -175s-157 69 -157 175v40h73v-44c0 -63 26 -100 82 -100s82 37 82 100
c0 156 -234 171 -234 368c0 108 50 175 155 175z" />
    <glyph glyph-name="T" unicode="T" horiz-adv-x="363" 
d="M142 0v629h-129v71h336v-71h-129v-629h-78z" />
    <glyph glyph-name="Tbar" unicode="&#x166;" horiz-adv-x="372" 
d="M296 476v-58h-71v-418h-78v418h-71v58h71v153h-129v71h336v-71h-129v-153h71z" />
    <glyph glyph-name="Tcaron" unicode="&#x164;" horiz-adv-x="372" 
d="M133 840l52 -60l54 60h68l-87 -101h-69l-86 101h68zM147 0v629h-129v71h336v-71h-129v-629h-78z" />
    <glyph glyph-name="U" unicode="U" 
d="M114 165c0 -63 25 -101 82 -101c56 0 81 38 81 101v535h73v-531c0 -106 -49 -177 -157 -177c-107 0 -156 71 -156 177v531h77v-535z" />
    <glyph glyph-name="Uacute" unicode="&#xda;" 
d="M296 845l-93 -103h-54l70 103h77zM350 169c0 -106 -49 -177 -157 -177c-107 0 -156 71 -156 177v531h77v-535c0 -63 25 -101 82 -101c56 0 81 38 81 101v535h73v-531z" />
    <glyph glyph-name="Ubreve" unicode="&#x16c;" 
d="M299 838c-1 -63 -40 -102 -105 -102s-103 39 -104 102h47c3 -40 25 -53 57 -53s55 13 58 53h47zM350 169c0 -106 -49 -177 -157 -177c-107 0 -156 71 -156 177v531h77v-535c0 -63 25 -101 82 -101c56 0 81 38 81 101v535h73v-531z" />
    <glyph glyph-name="Ucircumflex" unicode="&#xdb;" 
d="M142 741h-68l86 101h69l87 -101h-68l-54 59zM350 169c0 -106 -49 -177 -157 -177c-107 0 -156 71 -156 177v531h77v-535c0 -63 25 -101 82 -101c56 0 81 38 81 101v535h73v-531z" />
    <glyph glyph-name="Udieresis" unicode="&#xdc;" 
d="M167 830v-90h-69v90h69zM291 830v-90h-68v90h68zM350 169c0 -106 -49 -177 -157 -177c-107 0 -156 71 -156 177v531h77v-535c0 -63 25 -101 82 -101c56 0 81 38 81 101v535h73v-531z" />
    <glyph glyph-name="Ugrave" unicode="&#xd9;" 
d="M173 842l70 -103h-58l-93 103h81zM350 169c0 -106 -49 -177 -157 -177c-107 0 -156 71 -156 177v531h77v-535c0 -63 25 -101 82 -101c56 0 81 38 81 101v535h73v-531z" />
    <glyph glyph-name="Uhungarumlaut" unicode="&#x170;" 
d="M229 844l-80 -103h-49l57 103h72zM337 844l-81 -103h-48l56 103h73zM350 169c0 -106 -49 -177 -157 -177c-107 0 -156 71 -156 177v531h77v-535c0 -63 25 -101 82 -101c56 0 81 38 81 101v535h73v-531z" />
    <glyph glyph-name="Umacron" unicode="&#x16a;" 
d="M298 806v-56h-205v56h205zM350 169c0 -106 -49 -177 -157 -177c-107 0 -156 71 -156 177v531h77v-535c0 -63 25 -101 82 -101c56 0 81 38 81 101v535h73v-531z" />
    <glyph glyph-name="Uogonek" unicode="&#x172;" 
d="M350 169c0 -66 -14 -129 -75 -164c-27 -21 -40 -54 -39 -74c0 -21 18 -30 37 -30s29 4 40 9v-41c-20 -9 -37 -12 -62 -12c-44 0 -75 18 -75 56c-1 30 20 60 53 83c-11 -3 -23 -4 -36 -4c-107 0 -156 71 -156 177v531h77v-535c0 -63 25 -101 82 -101c56 0 81 38 81 101
v535h73v-531z" />
    <glyph glyph-name="Uring" unicode="&#x16e;" 
d="M196 881c41 0 74 -32 74 -73s-33 -73 -74 -73s-73 32 -73 73s32 73 73 73zM196 844c-20 0 -36 -15 -36 -36s16 -36 36 -36s37 15 37 36s-17 36 -37 36zM350 169c0 -106 -49 -177 -157 -177c-107 0 -156 71 -156 177v531h77v-535c0 -63 25 -101 82 -101c56 0 81 38 81 101
v535h73v-531z" />
    <glyph glyph-name="Utilde" unicode="&#x168;" 
d="M317 802c-16 -40 -41 -57 -72 -57c-39 -1 -60 29 -91 29c-18 0 -31 -8 -42 -30l-39 27c16 41 42 57 73 58c40 0 62 -30 92 -30c17 1 30 9 40 30zM350 169c0 -106 -49 -177 -157 -177c-107 0 -156 71 -156 177v531h77v-535c0 -63 25 -101 82 -101c56 0 81 38 81 101v535
h73v-531z" />
    <glyph glyph-name="V" unicode="V" horiz-adv-x="418" 
d="M99 700l114 -609l113 609h72l-131 -700h-115l-132 700h79z" />
    <glyph glyph-name="W" unicode="W" horiz-adv-x="583" 
d="M226 0h-107l-96 700h76l82 -596l78 595h77l77 -596l79 597h68l-95 -700h-103l-67 475z" />
    <glyph glyph-name="Wacute" unicode="&#x1e82;" horiz-adv-x="583" 
d="M391 842l-93 -103h-55l70 103h78zM226 0h-107l-96 700h76l82 -596l78 595h77l77 -596l79 597h68l-95 -700h-103l-67 475z" />
    <glyph glyph-name="Wcircumflex" unicode="&#x174;" horiz-adv-x="583" 
d="M240 740h-68l86 101h69l87 -101h-68l-53 59zM226 0h-107l-96 700h76l82 -596l78 595h77l77 -596l79 597h68l-95 -700h-103l-67 475z" />
    <glyph glyph-name="Wdieresis" unicode="&#x1e84;" horiz-adv-x="583" 
d="M265 831v-90h-68v90h68zM389 831v-90h-68v90h68zM226 0h-107l-96 700h76l82 -596l78 595h77l77 -596l79 597h68l-95 -700h-103l-67 475z" />
    <glyph glyph-name="Wgrave" unicode="&#x1e80;" horiz-adv-x="583" 
d="M277 845l69 -103h-57l-93 103h81zM226 0h-107l-96 700h76l82 -596l78 595h77l77 -596l79 597h68l-95 -700h-103l-67 475z" />
    <glyph glyph-name="X" unicode="X" horiz-adv-x="435" 
d="M214 302l-117 -302h-74l141 361l-132 339h81l108 -280l109 280h73l-131 -339l140 -361h-82z" />
    <glyph glyph-name="Y" unicode="Y" horiz-adv-x="406" 
d="M164 251l-148 449h81l109 -344l110 344h74l-149 -449v-251h-77v251z" />
    <glyph glyph-name="Yacute" unicode="&#xdd;" horiz-adv-x="406" 
d="M307 842l-93 -103h-54l70 103h77zM164 251l-148 449h81l109 -344l110 344h74l-149 -449v-251h-77v251z" />
    <glyph glyph-name="Ycircumflex" unicode="&#x176;" horiz-adv-x="406" 
d="M153 740h-68l86 100h69l87 -100h-68l-53 59zM164 251l-148 449h81l109 -344l110 344h74l-149 -449v-251h-77v251z" />
    <glyph glyph-name="Ydieresis" unicode="&#x178;" horiz-adv-x="406" 
d="M177 829v-90h-68v90h68zM301 829v-90h-68v90h68zM164 251l-148 449h81l109 -344l110 344h74l-149 -449v-251h-77v251z" />
    <glyph glyph-name="Ygrave" unicode="&#x1ef2;" horiz-adv-x="406" 
d="M186 845l69 -103h-57l-93 103h81zM164 251l-148 449h81l109 -344l110 344h74l-149 -449v-251h-77v251z" />
    <glyph glyph-name="Z" unicode="Z" horiz-adv-x="379" 
d="M347 0h-318v70l240 559h-229v71h309v-70l-241 -559h239v-71z" />
    <glyph glyph-name="Zacute" unicode="&#x179;" horiz-adv-x="379" 
d="M297 845l-93 -103h-54l69 103h78zM347 0h-318v70l240 559h-229v71h309v-70l-241 -559h239v-71z" />
    <glyph glyph-name="Zcaron" unicode="&#x17d;" horiz-adv-x="379" 
d="M141 842l52 -60l54 60h68l-87 -101h-69l-86 101h68zM347 0h-318v70l240 559h-229v71h309v-70l-241 -559h239v-71z" />
    <glyph glyph-name="Zdotaccent" unicode="&#x17b;" horiz-adv-x="379" 
d="M231 832v-90h-68v90h68zM347 0h-318v70l240 559h-229v71h309v-70l-241 -559h239v-71z" />
    <glyph glyph-name="uni0122" unicode="&#x122;" horiz-adv-x="383" 
d="M191 707c108 0 158 -70 158 -176v-60h-74v64c0 63 -25 101 -82 101c-56 0 -82 -38 -82 -101v-370c0 -63 26 -101 82 -101c57 0 82 38 82 101v140h-72v70h146v-206c0 -106 -50 -176 -158 -176c-107 0 -157 70 -157 176v362c0 106 50 176 157 176zM183 -121h-25v88h66v-81
l-35 -63h-29z" />
    <glyph glyph-name="uni0136" unicode="&#x136;" horiz-adv-x="409" 
d="M159 304l-41 -69v-235h-78v700h78v-338l186 338h79l-177 -319l183 -381h-80zM197 -121h-25v88h66v-81l-35 -63h-29z" />
    <glyph glyph-name="uni013B" unicode="&#x13b;" horiz-adv-x="337" 
d="M40 0v700h78v-629h200v-71h-278zM174 -122h-25v87h66v-81l-35 -63h-29z" />
    <glyph glyph-name="uni0145" unicode="&#x145;" horiz-adv-x="409" 
d="M109 0h-70v700h99l162 -506v506h69v-700h-81l-179 566v-566zM196 -121h-25v88h65v-81l-35 -63h-28z" />
    <glyph glyph-name="uni0156" unicode="&#x156;" horiz-adv-x="394" 
d="M196 700c110 0 156 -56 156 -160v-57c0 -77 -27 -125 -87 -144c64 -19 88 -71 88 -146v-109c0 -31 1 -60 14 -84h-79c-9 20 -13 38 -13 85v110c0 79 -37 104 -102 104h-55v-299h-78v700h156zM176 370c62 0 99 20 99 96v67c0 63 -23 96 -81 96h-76v-259h58zM188 -120h-24
v87h65v-81l-35 -63h-29z" />
    <glyph glyph-name="uni0162" unicode="&#x162;" horiz-adv-x="372" 
d="M204 0v-38c38 0 67 -18 67 -56c0 -54 -43 -75 -88 -74c-43 0 -86 21 -86 66v8h47v-8c0 -22 21 -29 38 -29c21 0 41 10 41 34c0 26 -20 33 -47 33h-9v64h-20v629h-129v71h336v-71h-129v-629h-21z" />
    <glyph glyph-name="uni0218" unicode="&#x218;" horiz-adv-x="372" 
d="M187 707c106 0 156 -69 156 -175v-19h-74v23c0 63 -24 100 -80 100s-80 -37 -80 -99c0 -157 235 -172 235 -369c0 -106 -51 -175 -158 -175s-157 69 -157 175v40h73v-44c0 -63 26 -100 82 -100s82 37 82 100c0 156 -234 171 -234 368c0 108 50 175 155 175zM176 -121h-25
v88h66v-81l-35 -63h-29z" />
    <glyph glyph-name="uni021A" unicode="&#x21a;" horiz-adv-x="372" 
d="M147 0v629h-129v71h336v-71h-129v-629h-78zM178 -121h-25v88h66v-81l-35 -63h-29z" />
    <glyph glyph-name="uni1E02" unicode="&#x1e02;" horiz-adv-x="392" 
d="M212 830v-90h-68v90h68zM197 700c109 0 152 -52 152 -155v-33c0 -74 -21 -120 -82 -139c68 -19 94 -73 94 -150v-59c0 -105 -51 -164 -160 -164h-161v700h157zM178 403c62 0 94 20 94 93v41c0 62 -21 92 -77 92h-77v-226h60zM201 71c57 0 83 30 83 95v62
c0 78 -31 104 -98 104h-68v-261h83z" />
    <glyph glyph-name="uni1E0A" unicode="&#x1e0a;" horiz-adv-x="396" 
d="M219 830v-90h-68v90h68zM204 700c109 0 159 -66 159 -174v-353c0 -107 -50 -173 -159 -173h-164v700h164zM203 71c56 0 83 35 83 99v360c0 64 -27 99 -84 99h-84v-558h85z" />
    <glyph glyph-name="uni1E1E" unicode="&#x1e1e;" horiz-adv-x="340" 
d="M211 829v-90h-68v90h68zM279 374v-71h-161v-303h-78v700h278v-71h-200v-255h161z" />
    <glyph glyph-name="uni1E40" unicode="&#x1e40;" horiz-adv-x="523" 
d="M295 832v-91h-68v91h68zM298 1h-75l-116 557v-558h-68v700h109l115 -559l111 559h109v-700h-74v563z" />
    <glyph glyph-name="uni1E56" unicode="&#x1e56;" horiz-adv-x="371" 
d="M214 830v-90h-68v90h68zM193 700c110 0 157 -65 157 -171v-84c0 -111 -52 -169 -163 -169h-69v-276h-78v700h153zM187 346c58 0 86 27 86 94v93c0 64 -23 96 -80 96h-75v-283h69z" />
    <glyph glyph-name="uni1E60" unicode="&#x1e60;" horiz-adv-x="372" 
d="M220 830v-90h-68v90h68zM187 707c106 0 156 -69 156 -175v-19h-74v23c0 63 -24 100 -80 100s-80 -37 -80 -99c0 -157 235 -172 235 -369c0 -106 -51 -175 -158 -175s-157 69 -157 175v40h73v-44c0 -63 26 -100 82 -100s82 37 82 100c0 156 -234 171 -234 368
c0 108 50 175 155 175z" />
    <glyph glyph-name="uni1E6A" unicode="&#x1e6a;" horiz-adv-x="372" 
d="M220 830v-90h-68v90h68zM147 0v629h-129v71h336v-71h-129v-629h-78z" />
    <glyph glyph-name="a" unicode="a" horiz-adv-x="422" 
d="M119 141l-27 -141h-72l134 700h113l134 -700h-78l-27 141h-177zM129 208h156l-79 404z" />
    <glyph glyph-name="aacute" unicode="&#xe1;" horiz-adv-x="422" 
d="M305 840l-92 -103h-55l70 103h77zM119 141l-27 -141h-72l134 700h113l134 -700h-78l-27 141h-177zM129 208h156l-79 404z" />
    <glyph glyph-name="abreve" unicode="&#x103;" horiz-adv-x="422" 
d="M314 834c0 -62 -40 -101 -105 -101s-102 39 -103 101h47c2 -39 25 -52 56 -52c32 0 56 13 58 52h47zM119 141l-27 -141h-72l134 700h113l134 -700h-78l-27 141h-177zM129 208h156l-79 404z" />
    <glyph glyph-name="acircumflex" unicode="&#xe2;" horiz-adv-x="422" 
d="M157 737h-68l86 100h70l86 -100h-68l-53 59zM119 141l-27 -141h-72l134 700h113l134 -700h-78l-27 141h-177zM129 208h156l-79 404z" />
    <glyph glyph-name="adieresis" unicode="&#xe4;" horiz-adv-x="422" 
d="M182 827v-90h-68v90h68zM306 827v-90h-68v90h68zM119 141l-27 -141h-72l134 700h113l134 -700h-78l-27 141h-177zM129 208h156l-79 404z" />
    <glyph glyph-name="agrave" unicode="&#xe0;" horiz-adv-x="422" 
d="M190 840l70 -103h-57l-93 103h80zM119 141l-27 -141h-72l134 700h113l134 -700h-78l-27 141h-177zM129 208h156l-79 404z" />
    <glyph glyph-name="amacron" unicode="&#x101;" horiz-adv-x="422" 
d="M316 806v-56h-212v56h212zM119 141l-27 -141h-72l134 700h113l134 -700h-78l-27 141h-177zM129 208h156l-79 404z" />
    <glyph glyph-name="aogonek" unicode="&#x105;" horiz-adv-x="422" 
d="M373 0c-24 -20 -37 -50 -36 -69c1 -21 18 -30 37 -30s29 4 40 9v-41c-20 -9 -37 -12 -62 -12c-44 0 -74 18 -75 56c-1 28 17 58 48 80l-29 148h-177l-27 -141h-72l134 700h113l134 -700h-28zM129 208h156l-79 404z" />
    <glyph glyph-name="aring" unicode="&#xe5;" horiz-adv-x="422" 
d="M210 883c41 0 73 -32 73 -73c0 -42 -32 -73 -73 -73c-42 0 -74 31 -74 73c0 41 32 73 74 73zM210 846c-21 0 -37 -16 -37 -36c0 -21 16 -36 37 -36c20 0 36 15 36 36c0 20 -16 36 -36 36zM119 141l-27 -141h-72l134 700h113l134 -700h-78l-27 141h-177zM129 208h156
l-79 404z" />
    <glyph glyph-name="atilde" unicode="&#xe3;" horiz-adv-x="422" 
d="M161 826c41 0 62 -30 92 -30c17 1 30 9 40 30l39 -27c-16 -39 -41 -57 -71 -57c-40 -1 -61 29 -92 29c-18 0 -31 -7 -42 -30l-39 27c16 41 42 57 73 58zM119 141l-27 -141h-72l134 700h113l134 -700h-78l-27 141h-177zM129 208h156l-79 404z" />
    <glyph glyph-name="ae" unicode="&#xe6;" horiz-adv-x="585" 
d="M516 390v-70h-161v-249h198v-71h-275v142h-143l-45 -142h-74l218 700h319v-71h-198v-239h161zM153 210h125v392z" />
    <glyph glyph-name="aeacute" unicode="&#x1fd;" horiz-adv-x="585" 
d="M410 844l-93 -103h-54l70 103h77zM516 390v-70h-161v-249h198v-71h-275v142h-143l-45 -142h-74l218 700h319v-71h-198v-239h161zM153 210h125v392z" />
    <glyph glyph-name="b" unicode="b" horiz-adv-x="392" 
d="M197 700c109 0 152 -52 152 -155v-33c0 -74 -21 -120 -82 -139c68 -19 94 -73 94 -150v-59c0 -105 -51 -164 -160 -164h-161v700h157zM178 403c62 0 94 20 94 93v41c0 62 -21 92 -77 92h-77v-226h60zM201 71c57 0 83 30 83 95v62c0 78 -31 104 -98 104h-68v-261h83z" />
    <glyph glyph-name="c" unicode="c" horiz-adv-x="380" 
d="M191 707c108 0 158 -70 158 -176v-63h-74v67c0 63 -25 101 -82 101c-56 0 -82 -38 -82 -101v-370c0 -63 26 -101 82 -101c57 0 82 38 82 101v91h74v-87c0 -106 -50 -176 -158 -176c-107 0 -157 70 -157 176v362c0 106 50 176 157 176z" />
    <glyph glyph-name="cacute" unicode="&#x107;" horiz-adv-x="380" 
d="M293 845l-93 -103h-55l70 103h78zM191 707c108 0 158 -70 158 -176v-63h-74v67c0 63 -25 101 -82 101c-56 0 -82 -38 -82 -101v-370c0 -63 26 -101 82 -101c57 0 82 38 82 101v91h74v-87c0 -106 -50 -176 -158 -176c-107 0 -157 70 -157 176v362c0 106 50 176 157 176z
" />
    <glyph glyph-name="ccaron" unicode="&#x10d;" horiz-adv-x="380" 
d="M141 841l52 -60l53 60h69l-87 -100h-69l-86 100h68zM191 707c108 0 158 -70 158 -176v-63h-74v67c0 63 -25 101 -82 101c-56 0 -82 -38 -82 -101v-370c0 -63 26 -101 82 -101c57 0 82 38 82 101v91h74v-87c0 -106 -50 -176 -158 -176c-107 0 -157 70 -157 176v362
c0 106 50 176 157 176z" />
    <glyph glyph-name="ccedilla" unicode="&#xe7;" horiz-adv-x="380" 
d="M191 707c108 0 158 -70 158 -176v-63h-74v67c0 63 -25 101 -82 101c-56 0 -82 -38 -82 -101v-370c0 -63 26 -101 82 -101c57 0 82 38 82 101v91h74v-87c0 -100 -45 -169 -141 -175v-31c47 0 74 -19 74 -51c0 -40 -35 -64 -95 -64c-58 0 -92 23 -92 62v8h51v-7
c0 -16 15 -27 41 -29c27 0 43 12 43 32c0 19 -18 30 -49 30h-9v50c-94 7 -138 76 -138 175v362c0 106 50 176 157 176z" />
    <glyph glyph-name="ccircumflex" unicode="&#x109;" horiz-adv-x="380" 
d="M140 740h-68l86 101h69l87 -101h-68l-53 59zM191 707c108 0 158 -70 158 -176v-63h-74v67c0 63 -25 101 -82 101c-56 0 -82 -38 -82 -101v-370c0 -63 26 -101 82 -101c57 0 82 38 82 101v91h74v-87c0 -106 -50 -176 -158 -176c-107 0 -157 70 -157 176v362
c0 106 50 176 157 176z" />
    <glyph glyph-name="cdotaccent" unicode="&#x10b;" horiz-adv-x="380" 
d="M225 828v-90h-68v90h68zM191 707c108 0 158 -70 158 -176v-63h-74v67c0 63 -25 101 -82 101c-56 0 -82 -38 -82 -101v-370c0 -63 26 -101 82 -101c57 0 82 38 82 101v91h74v-87c0 -106 -50 -176 -158 -176c-107 0 -157 70 -157 176v362c0 106 50 176 157 176z" />
    <glyph glyph-name="d" unicode="d" horiz-adv-x="396" 
d="M204 700c109 0 159 -66 159 -174v-353c0 -107 -50 -173 -159 -173h-164v700h164zM203 71c56 0 83 35 83 99v360c0 64 -27 99 -84 99h-84v-558h85z" />
    <glyph glyph-name="eth" unicode="&#xf0;" horiz-adv-x="396" 
d="M204 700c109 0 159 -66 159 -174v-353c0 -107 -50 -173 -159 -173h-164v318h-39v63h39v319h164zM197 318h-79v-247h85c56 0 83 35 83 99v360c0 64 -27 99 -84 99h-84v-248h79v-63z" />
    <glyph glyph-name="dcaron" unicode="&#x10f;" horiz-adv-x="396" 
d="M135 839l53 -60l53 60h69l-87 -100h-69l-87 100h68zM204 700c109 0 159 -66 159 -174v-353c0 -107 -50 -173 -159 -173h-164v700h164zM203 71c56 0 83 35 83 99v360c0 64 -27 99 -84 99h-84v-558h85z" />
    <glyph glyph-name="dcroat" unicode="&#x111;" horiz-adv-x="396" 
d="M204 700c109 0 159 -66 159 -174v-353c0 -107 -50 -173 -159 -173h-164v318h-39v63h39v319h164zM197 318h-79v-247h85c56 0 83 35 83 99v360c0 64 -27 99 -84 99h-84v-248h79v-63z" />
    <glyph glyph-name="e" unicode="e" horiz-adv-x="360" 
d="M289 390v-70h-171v-249h210v-71h-288v700h288v-71h-210v-239h171z" />
    <glyph glyph-name="eacute" unicode="&#xe9;" horiz-adv-x="360" 
d="M283 842l-93 -103h-54l70 103h77zM289 390v-70h-171v-249h210v-71h-288v700h288v-71h-210v-239h171z" />
    <glyph glyph-name="ebreve" unicode="&#x115;" horiz-adv-x="360" 
d="M287 840c-1 -63 -40 -101 -106 -101c-64 0 -102 38 -103 101h47c2 -39 25 -52 56 -52c33 0 56 13 59 52h47zM289 390v-70h-171v-249h210v-71h-288v700h288v-71h-210v-239h171z" />
    <glyph glyph-name="ecaron" unicode="&#x11b;" horiz-adv-x="360" 
d="M131 839l52 -60l54 60h68l-87 -100h-69l-86 100h68zM289 390v-70h-171v-249h210v-71h-288v700h288v-71h-210v-239h171z" />
    <glyph glyph-name="ecircumflex" unicode="&#xea;" horiz-adv-x="360" 
d="M130 739h-68l86 101h69l87 -101h-68l-54 60zM289 390v-70h-171v-249h210v-71h-288v700h288v-71h-210v-239h171z" />
    <glyph glyph-name="edieresis" unicode="&#xeb;" horiz-adv-x="360" 
d="M155 829v-90h-68v90h68zM279 829v-90h-68v90h68zM289 390v-70h-171v-249h210v-71h-288v700h288v-71h-210v-239h171z" />
    <glyph glyph-name="edotaccent" unicode="&#x117;" horiz-adv-x="360" 
d="M218 830v-90h-68v90h68zM289 390v-70h-171v-249h210v-71h-288v700h288v-71h-210v-239h171z" />
    <glyph glyph-name="egrave" unicode="&#xe8;" horiz-adv-x="360" 
d="M167 845l69 -103h-57l-93 103h81zM289 390v-70h-171v-249h210v-71h-288v700h288v-71h-210v-239h171z" />
    <glyph glyph-name="emacron" unicode="&#x113;" horiz-adv-x="360" 
d="M286 807v-55h-209v55h209zM289 390v-70h-171v-249h210v-71h-288v700h288v-71h-210v-239h171z" />
    <glyph glyph-name="eogonek" unicode="&#x119;" horiz-adv-x="360" 
d="M289 390v-70h-171v-249h210v-71h-33c-25 -20 -37 -50 -37 -69c1 -21 18 -30 38 -30c19 0 28 4 39 9v-41c-20 -9 -37 -12 -61 -12c-45 0 -75 18 -76 56c0 32 24 64 61 87h-219v700h288v-71h-210v-239h171z" />
    <glyph glyph-name="f" unicode="f" horiz-adv-x="340" 
d="M279 374v-71h-161v-303h-78v700h278v-71h-200v-255h161z" />
    <glyph glyph-name="g" unicode="g" horiz-adv-x="383" 
d="M191 707c108 0 158 -70 158 -176v-60h-74v64c0 63 -25 101 -82 101c-56 0 -82 -38 -82 -101v-370c0 -63 26 -101 82 -101c57 0 82 38 82 101v140h-72v70h146v-206c0 -106 -50 -176 -158 -176c-107 0 -157 70 -157 176v362c0 106 50 176 157 176z" />
    <glyph glyph-name="gbreve" unicode="&#x11f;" horiz-adv-x="383" 
d="M296 841c-1 -63 -40 -101 -105 -101s-103 38 -104 101h47c3 -39 25 -52 57 -52s55 13 58 52h47zM191 707c108 0 158 -70 158 -176v-60h-74v64c0 63 -25 101 -82 101c-56 0 -82 -38 -82 -101v-370c0 -63 26 -101 82 -101c57 0 82 38 82 101v140h-72v70h146v-206
c0 -106 -50 -176 -158 -176c-107 0 -157 70 -157 176v362c0 106 50 176 157 176z" />
    <glyph glyph-name="gcircumflex" unicode="&#x11d;" horiz-adv-x="383" 
d="M139 742h-68l86 100h69l87 -100h-68l-54 59zM191 707c108 0 158 -70 158 -176v-60h-74v64c0 63 -25 101 -82 101c-56 0 -82 -38 -82 -101v-370c0 -63 26 -101 82 -101c57 0 82 38 82 101v140h-72v70h146v-206c0 -106 -50 -176 -158 -176c-107 0 -157 70 -157 176v362
c0 106 50 176 157 176z" />
    <glyph glyph-name="gdotaccent" unicode="&#x121;" horiz-adv-x="383" 
d="M228 830v-90h-68v90h68zM191 707c108 0 158 -70 158 -176v-60h-74v64c0 63 -25 101 -82 101c-56 0 -82 -38 -82 -101v-370c0 -63 26 -101 82 -101c57 0 82 38 82 101v140h-72v70h146v-206c0 -106 -50 -176 -158 -176c-107 0 -157 70 -157 176v362c0 106 50 176 157 176z
" />
    <glyph glyph-name="h" unicode="h" horiz-adv-x="408" 
d="M118 315v-315h-78v700h78v-315h172v315h78v-700h-78v315h-172z" />
    <glyph glyph-name="hbar" unicode="&#x127;" horiz-adv-x="415" 
d="M372 514v-514h-79v315h-172v-315h-78v514h-36v58h36v128h78v-128h172v128h79v-128h36v-58h-36zM293 514h-172v-129h172v129z" />
    <glyph glyph-name="hcircumflex" unicode="&#x125;" horiz-adv-x="408" 
d="M151 741h-68l87 101h69l86 -101h-68l-53 59zM118 315v-315h-78v700h78v-315h172v315h78v-700h-78v315h-172z" />
    <glyph glyph-name="i" unicode="i" horiz-adv-x="158" 
d="M118 700v-700h-78v700h78z" />
    <glyph glyph-name="dotlessi" unicode="&#x131;" horiz-adv-x="158" 
d="M118 700v-700h-78v700h78z" />
    <glyph glyph-name="iacute" unicode="&#xed;" horiz-adv-x="158" 
d="M100 842h78l-93 -103h-54zM40 700h78v-700h-78v700z" />
    <glyph glyph-name="ibreve" unicode="&#x12d;" horiz-adv-x="158" 
d="M183 838c0 -63 -40 -102 -105 -102s-102 39 -103 102h47c2 -40 25 -53 56 -53c32 0 55 13 58 53h47zM40 700h78v-700h-78v700z" />
    <glyph glyph-name="icircumflex" unicode="&#xee;" horiz-adv-x="158" 
d="M113 839l87 -100h-68l-53 59l-53 -59h-68l86 100h69zM40 700h78v-700h-78v700z" />
    <glyph glyph-name="idieresis" unicode="&#xef;" horiz-adv-x="158" 
d="M51 829v-90h-68v90h68zM175 829v-90h-68v90h68zM118 700v-700h-78v700h78z" />
    <glyph glyph-name="igrave" unicode="&#xec;" horiz-adv-x="158" 
d="M-25 842h81l70 -103h-58zM40 700h78v-700h-78v700z" />
    <glyph glyph-name="ij" unicode="&#x133;" horiz-adv-x="412" 
d="M118 700v-700h-78v700h78zM376 173c0 -132 -66 -172 -151 -174c-18 0 -31 0 -48 1v71c13 -1 26 -1 38 -1c53 3 83 27 83 98v532h78v-527z" />
    <glyph glyph-name="imacron" unicode="&#x12b;" horiz-adv-x="158" 
d="M178 806v-56h-199v56h199zM118 700v-700h-78v700h78z" />
    <glyph glyph-name="iogonek" unicode="&#x12f;" horiz-adv-x="158" 
d="M104 0c-25 -20 -37 -50 -36 -69c0 -21 17 -30 37 -30c19 0 28 4 40 9v-41c-20 -9 -38 -12 -62 -12c-44 0 -75 18 -75 56c-1 31 21 63 61 87h-29v700h78v-700h-14z" />
    <glyph glyph-name="itilde" unicode="&#x129;" horiz-adv-x="158" 
d="M201 802c-15 -40 -40 -58 -71 -58c-39 0 -61 30 -92 29c-18 0 -31 -7 -42 -29l-39 26c17 41 43 58 74 58c40 0 62 -30 92 -29c17 0 29 8 40 29zM118 700v-700h-78v700h78z" />
    <glyph glyph-name="j" unicode="j" horiz-adv-x="255" 
d="M20 71c13 -1 27 -1 39 -1c51 3 82 27 82 98v532h77v-527c0 -131 -65 -172 -149 -174c-18 0 -32 -1 -49 1v71z" />
    <glyph glyph-name="uni0237" unicode="&#x237;" horiz-adv-x="255" 
d="M20 71c13 -1 27 -1 39 -1c51 3 82 27 82 98v532h77v-527c0 -131 -65 -172 -149 -174c-18 0 -32 -1 -49 1v71z" />
    <glyph glyph-name="jcircumflex" unicode="&#x135;" horiz-adv-x="255" 
d="M114 739h-68l86 101h69l87 -101h-68l-53 60zM218 173c0 -131 -65 -172 -149 -174c-18 0 -32 -1 -49 1v71c13 -1 27 -1 39 -1c51 3 82 27 82 98v532h77v-527z" />
    <glyph glyph-name="k" unicode="k" horiz-adv-x="409" 
d="M159 304l-41 -69v-235h-78v700h78v-338l186 338h79l-177 -319l183 -381h-80z" />
    <glyph glyph-name="kgreenlandic" unicode="&#x138;" horiz-adv-x="409" 
d="M159 304l-41 -69v-235h-78v700h78v-338l186 338h79l-177 -319l183 -381h-80z" />
    <glyph glyph-name="l" unicode="l" horiz-adv-x="337" 
d="M40 0v700h78v-629h200v-71h-278z" />
    <glyph glyph-name="lacute" unicode="&#x13a;" horiz-adv-x="337" 
d="M203 842l-93 -103h-54l69 103h78zM40 0v700h78v-629h200v-71h-278z" />
    <glyph glyph-name="lcaron" unicode="&#x13e;" horiz-adv-x="337" 
d="M40 0v700h78v-629h200v-71h-278zM242 603h-29v97h75v-89l-38 -96h-33z" />
    <glyph glyph-name="ldot" unicode="&#x140;" horiz-adv-x="337" 
d="M40 0v700h78v-629h200v-71h-278zM272 400v-97h-75v97h75z" />
    <glyph glyph-name="lslash" unicode="&#x142;" horiz-adv-x="348" 
d="M128 291v-220h201v-71h-278v208l-51 -50v72l51 50v420h77v-337l109 113v-72z" />
    <glyph glyph-name="m" unicode="m" horiz-adv-x="523" 
d="M298 1h-75l-116 557v-558h-68v700h109l115 -559l111 559h109v-700h-74v563z" />
    <glyph glyph-name="n" unicode="n" horiz-adv-x="409" 
d="M109 0h-70v700h99l162 -506v506h69v-700h-81l-179 566v-566z" />
    <glyph glyph-name="nacute" unicode="&#x144;" horiz-adv-x="409" 
d="M306 842l-93 -102h-54l70 102h77zM109 0h-70v700h99l162 -506v506h69v-700h-81l-179 567v-567z" />
    <glyph glyph-name="napostrophe" unicode="&#x149;" horiz-adv-x="503" 
d="M40 603h-29v97h75v-89l-38 -96h-33zM204 0h-70v700h99l162 -506v506h69v-700h-81l-179 566v-566z" />
    <glyph glyph-name="ncaron" unicode="&#x148;" horiz-adv-x="409" 
d="M152 842l53 -60l53 60h68l-86 -101h-69l-87 101h68zM109 0h-70v700h99l162 -506v506h69v-700h-81l-179 566v-566z" />
    <glyph glyph-name="ntilde" unicode="&#xf1;" horiz-adv-x="409" 
d="M327 804c-16 -40 -41 -58 -71 -58c-40 -1 -61 30 -92 29c-18 0 -31 -7 -42 -29l-39 26c16 41 42 58 74 58c40 0 61 -30 91 -29c17 0 30 8 40 29zM109 0h-70v700h99l162 -506v506h69v-700h-81l-179 566v-566z" />
    <glyph glyph-name="o" unicode="o" horiz-adv-x="389" 
d="M34 531c0 107 53 176 160 176c108 0 161 -69 161 -176v-362c0 -106 -53 -176 -161 -176c-107 0 -160 70 -160 176v362zM111 165c0 -64 27 -101 83 -101c57 0 83 37 83 101v370c0 63 -26 101 -83 101c-56 0 -83 -38 -83 -101v-370z" />
    <glyph glyph-name="oacute" unicode="&#xf3;" horiz-adv-x="389" 
d="M293 845l-93 -103h-54l70 103h77zM194 707c108 0 161 -69 161 -176v-362c0 -106 -53 -176 -161 -176c-107 0 -160 70 -160 176v362c0 107 53 176 160 176zM194 636c-56 0 -83 -38 -83 -101v-370c0 -64 27 -101 83 -101c57 0 83 37 83 101v370c0 63 -26 101 -83 101z" />
    <glyph glyph-name="obreve" unicode="&#x14f;" horiz-adv-x="389" 
d="M299 841c-1 -63 -40 -101 -106 -101c-64 0 -102 38 -103 101h47c2 -39 25 -52 56 -52c33 0 56 13 59 52h47zM194 707c108 0 161 -69 161 -176v-362c0 -106 -53 -176 -161 -176c-107 0 -160 70 -160 176v362c0 107 53 176 160 176zM194 636c-56 0 -83 -38 -83 -101v-370
c0 -64 27 -101 83 -101c57 0 83 37 83 101v370c0 63 -26 101 -83 101z" />
    <glyph glyph-name="ocircumflex" unicode="&#xf4;" horiz-adv-x="389" 
d="M141 741h-68l86 101h69l87 -101h-68l-54 59zM194 707c108 0 161 -69 161 -176v-362c0 -106 -53 -176 -161 -176c-107 0 -160 70 -160 176v362c0 107 53 176 160 176zM194 636c-56 0 -83 -38 -83 -101v-370c0 -64 27 -101 83 -101c57 0 83 37 83 101v370
c0 63 -26 101 -83 101z" />
    <glyph glyph-name="odieresis" unicode="&#xf6;" horiz-adv-x="389" 
d="M166 831v-90h-68v90h68zM290 831v-90h-68v90h68zM194 707c108 0 161 -69 161 -176v-362c0 -106 -53 -176 -161 -176c-107 0 -160 70 -160 176v362c0 107 53 176 160 176zM194 636c-56 0 -83 -38 -83 -101v-370c0 -64 27 -101 83 -101c57 0 83 37 83 101v370
c0 63 -26 101 -83 101z" />
    <glyph glyph-name="ograve" unicode="&#xf2;" horiz-adv-x="389" 
d="M174 845l69 -103h-57l-93 103h81zM194 707c108 0 161 -69 161 -176v-362c0 -106 -53 -176 -161 -176c-107 0 -160 70 -160 176v362c0 107 53 176 160 176zM194 636c-56 0 -83 -38 -83 -101v-370c0 -64 27 -101 83 -101c57 0 83 37 83 101v370c0 63 -26 101 -83 101z" />
    <glyph glyph-name="ohungarumlaut" unicode="&#x151;" horiz-adv-x="389" 
d="M230 845l-80 -103h-49l57 103h72zM338 845l-81 -103h-49l57 103h73zM194 707c108 0 161 -69 161 -176v-362c0 -106 -53 -176 -161 -176c-107 0 -160 70 -160 176v362c0 107 53 176 160 176zM194 636c-56 0 -83 -38 -83 -101v-370c0 -64 27 -101 83 -101
c57 0 83 37 83 101v370c0 63 -26 101 -83 101z" />
    <glyph glyph-name="omacron" unicode="&#x14d;" horiz-adv-x="389" 
d="M299 806v-55h-208v55h208zM194 707c108 0 161 -69 161 -176v-362c0 -106 -53 -176 -161 -176c-107 0 -160 70 -160 176v362c0 107 53 176 160 176zM194 636c-56 0 -83 -38 -83 -101v-370c0 -64 27 -101 83 -101c57 0 83 37 83 101v370c0 63 -26 101 -83 101z" />
    <glyph glyph-name="oslash" unicode="&#xf8;" horiz-adv-x="389" 
d="M325 646c20 -30 30 -69 30 -115v-362c0 -106 -53 -176 -161 -176c-43 0 -77 11 -102 31l-19 -50l-34 13l25 67c-20 30 -30 69 -30 115v362c0 107 53 176 160 176c43 0 77 -11 103 -31l18 49l35 -13zM266 594c-13 27 -36 42 -72 42c-56 0 -83 -38 -83 -101v-355zM194 64
c57 0 83 37 83 101v353l-155 -413c13 -26 37 -41 72 -41z" />
    <glyph glyph-name="oslashacute" unicode="&#x1ff;" horiz-adv-x="389" 
d="M219 845h78l-93 -103h-55zM325 646c20 -30 30 -69 30 -115v-362c0 -106 -53 -176 -161 -176c-43 0 -77 11 -102 31l-19 -50l-34 13l25 67c-20 30 -30 69 -30 115v362c0 107 53 176 160 176c43 0 77 -11 103 -31l18 49l35 -13zM266 594c-13 27 -36 42 -72 42
c-56 0 -83 -38 -83 -101v-355zM194 64c57 0 83 37 83 101v353l-155 -413c13 -26 37 -41 72 -41z" />
    <glyph glyph-name="otilde" unicode="&#xf5;" horiz-adv-x="389" 
d="M318 802c-15 -40 -40 -57 -71 -57c-39 -1 -61 29 -92 29c-18 0 -31 -8 -42 -30l-39 27c17 41 43 57 74 58c40 0 62 -30 92 -30c17 1 29 9 40 30zM194 707c108 0 161 -69 161 -176v-362c0 -106 -53 -176 -161 -176c-107 0 -160 70 -160 176v362c0 107 53 176 160 176z
M194 636c-56 0 -83 -38 -83 -101v-370c0 -64 27 -101 83 -101c57 0 83 37 83 101v370c0 63 -26 101 -83 101z" />
    <glyph glyph-name="oe" unicode="&#x153;" horiz-adv-x="577" 
d="M508 390v-70h-161v-249h198v-71h-357c-108 0 -155 69 -155 174v352c0 105 47 174 155 174h357v-71h-198v-239h161zM189 629c-55 0 -78 -39 -78 -99v-360c0 -60 23 -99 78 -99h81v558h-81z" />
    <glyph glyph-name="p" unicode="p" horiz-adv-x="371" 
d="M193 700c110 0 157 -65 157 -171v-84c0 -111 -52 -169 -163 -169h-69v-276h-78v700h153zM187 346c58 0 86 27 86 94v93c0 64 -23 96 -80 96h-75v-283h69z" />
    <glyph glyph-name="thorn" unicode="&#xfe;" horiz-adv-x="377" 
d="M193 599c110 0 157 -65 157 -172v-83c0 -112 -52 -170 -163 -170h-69v-174h-78v700h78v-101h75zM187 245c58 0 86 26 86 94v93c0 63 -23 96 -80 96h-75v-283h69z" />
    <glyph glyph-name="q" unicode="q" horiz-adv-x="392" 
d="M194 707c108 0 161 -69 161 -176v-362c0 -43 -9 -81 -27 -109c8 -17 21 -22 43 -22h10v-69h-13c-44 0 -73 16 -89 45c-22 -13 -51 -21 -85 -21c-107 0 -160 70 -160 176v362c0 107 53 176 160 176zM194 636c-56 0 -83 -38 -83 -101v-370c0 -64 27 -101 83 -101
c57 0 83 37 83 101v370c0 63 -26 101 -83 101z" />
    <glyph glyph-name="r" unicode="r" horiz-adv-x="394" 
d="M196 700c110 0 156 -56 156 -160v-57c0 -77 -27 -125 -87 -144c64 -19 88 -71 88 -146v-109c0 -31 1 -60 14 -84h-79c-9 20 -13 38 -13 85v110c0 79 -37 104 -102 104h-55v-299h-78v700h156zM176 370c62 0 99 20 99 96v67c0 63 -23 96 -81 96h-76v-259h58z" />
    <glyph glyph-name="racute" unicode="&#x155;" horiz-adv-x="394" 
d="M287 845l-93 -103h-54l69 103h78zM196 700c110 0 156 -56 156 -160v-57c0 -77 -27 -125 -87 -144c64 -19 88 -71 88 -146v-109c0 -31 1 -60 14 -84h-79c-9 20 -13 38 -13 85v110c0 79 -37 104 -102 104h-55v-299h-78v700h156zM176 370c62 0 99 20 99 96v67
c0 63 -23 96 -81 96h-76v-259h58z" />
    <glyph glyph-name="rcaron" unicode="&#x159;" horiz-adv-x="394" 
d="M133 842l53 -60l53 60h68l-87 -100h-69l-86 100h68zM196 700c110 0 156 -56 156 -160v-57c0 -77 -27 -125 -87 -144c64 -19 88 -71 88 -146v-109c0 -31 1 -60 14 -84h-79c-9 20 -13 38 -13 85v110c0 79 -37 104 -102 104h-55v-299h-78v700h156zM176 370c62 0 99 20 99 96
v67c0 63 -23 96 -81 96h-76v-259h58z" />
    <glyph glyph-name="s" unicode="s" horiz-adv-x="372" 
d="M187 707c106 0 156 -69 156 -175v-19h-74v23c0 63 -24 100 -80 100s-80 -37 -80 -99c0 -157 235 -172 235 -369c0 -106 -51 -175 -158 -175s-157 69 -157 175v40h73v-44c0 -63 26 -100 82 -100s82 37 82 100c0 156 -234 171 -234 368c0 108 50 175 155 175z" />
    <glyph glyph-name="sacute" unicode="&#x15b;" horiz-adv-x="372" 
d="M289 845l-93 -103h-54l69 103h78zM187 707c106 0 156 -69 156 -175v-19h-74v23c0 63 -24 100 -80 100s-80 -37 -80 -99c0 -157 235 -172 235 -369c0 -106 -51 -175 -158 -175s-157 69 -157 175v40h73v-44c0 -63 26 -100 82 -100s82 37 82 100c0 156 -234 171 -234 368
c0 108 50 175 155 175z" />
    <glyph glyph-name="scaron" unicode="&#x161;" horiz-adv-x="372" 
d="M134 842l53 -60l53 60h68l-87 -100h-69l-86 100h68zM187 707c106 0 156 -69 156 -175v-19h-74v23c0 63 -24 100 -80 100s-80 -37 -80 -99c0 -157 235 -172 235 -369c0 -106 -51 -175 -158 -175s-157 69 -157 175v40h73v-44c0 -63 26 -100 82 -100s82 37 82 100
c0 156 -234 171 -234 368c0 108 50 175 155 175z" />
    <glyph glyph-name="scedilla" unicode="&#x15f;" horiz-adv-x="372" 
d="M201 -37c47 0 74 -19 74 -51c0 -40 -35 -64 -95 -64c-58 0 -92 23 -92 62v8h51v-7c0 -16 15 -27 41 -29c27 0 43 12 43 32c0 19 -18 30 -49 30h-9v50c-94 8 -136 75 -136 174v40h73v-44c0 -63 26 -100 82 -100s82 37 82 100c0 156 -234 171 -234 368
c0 108 50 175 155 175c106 0 156 -69 156 -175v-19h-74v23c0 63 -24 100 -80 100s-80 -37 -80 -99c0 -157 235 -172 235 -369c0 -101 -46 -168 -143 -174v-31z" />
    <glyph glyph-name="scircumflex" unicode="&#x15d;" horiz-adv-x="372" 
d="M135 741h-68l87 101h69l86 -101h-68l-53 59zM187 707c106 0 156 -69 156 -175v-19h-74v23c0 63 -24 100 -80 100s-80 -37 -80 -99c0 -157 235 -172 235 -369c0 -106 -51 -175 -158 -175s-157 69 -157 175v40h73v-44c0 -63 26 -100 82 -100s82 37 82 100
c0 156 -234 171 -234 368c0 108 50 175 155 175z" />
    <glyph glyph-name="germandbls" unicode="&#xdf;" horiz-adv-x="729" 
d="M185 707c107 0 156 -69 156 -175v-19h-74v23c0 63 -24 100 -80 100c-55 0 -80 -37 -80 -99c0 -157 235 -172 235 -369c0 -106 -50 -175 -158 -175c-107 0 -157 69 -157 175v40h73v-44c0 -63 26 -100 82 -100c57 0 82 37 82 100c0 156 -234 171 -234 368
c0 108 50 175 155 175zM546 707c106 0 155 -69 155 -175v-19h-73v23c0 63 -24 100 -80 100s-80 -37 -80 -99c0 -157 234 -172 234 -369c0 -106 -50 -175 -157 -175c-108 0 -158 69 -158 175v40h74v-44c0 -63 26 -100 82 -100s82 37 82 100c0 156 -235 171 -235 368
c0 108 51 175 156 175z" />
    <glyph glyph-name="t" unicode="t" horiz-adv-x="360" 
d="M141 0v629h-129v71h335v-71h-129v-629h-77z" />
    <glyph glyph-name="tbar" unicode="&#x167;" horiz-adv-x="372" 
d="M296 476v-58h-71v-418h-78v418h-71v58h71v153h-129v71h336v-71h-129v-153h71z" />
    <glyph glyph-name="tcaron" unicode="&#x165;" horiz-adv-x="372" 
d="M133 840l52 -60l54 60h68l-87 -101h-69l-86 101h68zM147 0v629h-129v71h336v-71h-129v-629h-78z" />
    <glyph glyph-name="u" unicode="u" 
d="M114 165c0 -63 25 -101 82 -101c56 0 81 38 81 101v535h73v-531c0 -106 -49 -177 -157 -177c-107 0 -156 71 -156 177v531h77v-535z" />
    <glyph glyph-name="uacute" unicode="&#xfa;" 
d="M296 845l-93 -103h-54l70 103h77zM350 169c0 -106 -49 -177 -157 -177c-107 0 -156 71 -156 177v531h77v-535c0 -63 25 -101 82 -101c56 0 81 38 81 101v535h73v-531z" />
    <glyph glyph-name="ubreve" unicode="&#x16d;" 
d="M299 838c-1 -63 -40 -102 -105 -102s-103 39 -104 102h47c3 -40 25 -53 57 -53s55 13 58 53h47zM350 169c0 -106 -49 -177 -157 -177c-107 0 -156 71 -156 177v531h77v-535c0 -63 25 -101 82 -101c56 0 81 38 81 101v535h73v-531z" />
    <glyph glyph-name="ucircumflex" unicode="&#xfb;" 
d="M142 741h-68l86 101h69l87 -101h-68l-54 59zM350 169c0 -106 -49 -177 -157 -177c-107 0 -156 71 -156 177v531h77v-535c0 -63 25 -101 82 -101c56 0 81 38 81 101v535h73v-531z" />
    <glyph glyph-name="udieresis" unicode="&#xfc;" 
d="M167 830v-90h-69v90h69zM291 830v-90h-68v90h68zM350 169c0 -106 -49 -177 -157 -177c-107 0 -156 71 -156 177v531h77v-535c0 -63 25 -101 82 -101c56 0 81 38 81 101v535h73v-531z" />
    <glyph glyph-name="ugrave" unicode="&#xf9;" 
d="M173 842l70 -103h-58l-93 103h81zM350 169c0 -106 -49 -177 -157 -177c-107 0 -156 71 -156 177v531h77v-535c0 -63 25 -101 82 -101c56 0 81 38 81 101v535h73v-531z" />
    <glyph glyph-name="uhungarumlaut" unicode="&#x171;" 
d="M229 844l-80 -103h-49l57 103h72zM337 844l-81 -103h-48l56 103h73zM350 169c0 -106 -49 -177 -157 -177c-107 0 -156 71 -156 177v531h77v-535c0 -63 25 -101 82 -101c56 0 81 38 81 101v535h73v-531z" />
    <glyph glyph-name="umacron" unicode="&#x16b;" 
d="M298 806v-56h-205v56h205zM350 169c0 -106 -49 -177 -157 -177c-107 0 -156 71 -156 177v531h77v-535c0 -63 25 -101 82 -101c56 0 81 38 81 101v535h73v-531z" />
    <glyph glyph-name="uni0123" unicode="&#x123;" horiz-adv-x="383" 
d="M191 707c108 0 158 -70 158 -176v-60h-74v64c0 63 -25 101 -82 101c-56 0 -82 -38 -82 -101v-370c0 -63 26 -101 82 -101c57 0 82 38 82 101v140h-72v70h146v-206c0 -106 -50 -176 -158 -176c-107 0 -157 70 -157 176v362c0 106 50 176 157 176zM183 -121h-24v88h65v-81
l-35 -63h-28z" />
    <glyph glyph-name="uni0137" unicode="&#x137;" horiz-adv-x="409" 
d="M159 304l-41 -69v-235h-78v700h78v-338l186 338h79l-177 -319l183 -381h-80zM197 -121h-25v88h66v-81l-35 -63h-29z" />
    <glyph glyph-name="uni013C" unicode="&#x13c;" horiz-adv-x="337" 
d="M40 0v700h78v-629h200v-71h-278zM177 -121h-24v88h65v-81l-35 -63h-28z" />
    <glyph glyph-name="uni0146" unicode="&#x146;" horiz-adv-x="409" 
d="M109 0h-70v700h99l162 -506v506h69v-700h-81l-179 566v-566zM196 -121h-25v88h65v-81l-35 -63h-28z" />
    <glyph glyph-name="uni0157" unicode="&#x157;" horiz-adv-x="394" 
d="M196 700c110 0 156 -56 156 -160v-57c0 -77 -27 -125 -87 -144c64 -19 88 -71 88 -146v-109c0 -31 1 -60 14 -84h-79c-9 20 -13 38 -13 85v110c0 79 -37 104 -102 104h-55v-299h-78v700h156zM176 370c62 0 99 20 99 96v67c0 63 -23 96 -81 96h-76v-259h58zM189 -121h-25
v88h66v-81l-35 -63h-29z" />
    <glyph glyph-name="uni0163" unicode="&#x163;" horiz-adv-x="372" 
d="M204 0v-38c38 0 67 -18 67 -56c0 -54 -43 -75 -88 -74c-43 0 -86 21 -86 66v8h47v-8c0 -22 21 -29 38 -29c21 0 41 10 41 34c0 26 -20 33 -47 33h-9v64h-20v629h-129v71h336v-71h-129v-629h-21z" />
    <glyph glyph-name="uni0219" unicode="&#x219;" horiz-adv-x="372" 
d="M187 707c106 0 156 -69 156 -175v-19h-74v23c0 63 -24 100 -80 100s-80 -37 -80 -99c0 -157 235 -172 235 -369c0 -106 -51 -175 -158 -175s-157 69 -157 175v40h73v-44c0 -63 26 -100 82 -100s82 37 82 100c0 156 -234 171 -234 368c0 108 50 175 155 175zM176 -121h-25
v88h66v-81l-35 -63h-29z" />
    <glyph glyph-name="uni021B" unicode="&#x21b;" horiz-adv-x="372" 
d="M147 0v629h-129v71h336v-71h-129v-629h-78zM178 -121h-25v88h66v-81l-35 -63h-29z" />
    <glyph glyph-name="uni1E03" unicode="&#x1e03;" horiz-adv-x="392" 
d="M212 830v-90h-68v90h68zM197 700c109 0 152 -52 152 -155v-33c0 -74 -21 -120 -82 -139c68 -19 94 -73 94 -150v-59c0 -105 -51 -164 -160 -164h-161v700h157zM178 403c62 0 94 20 94 93v41c0 62 -21 92 -77 92h-77v-226h60zM201 71c57 0 83 30 83 95v62
c0 78 -31 104 -98 104h-68v-261h83z" />
    <glyph glyph-name="uni1E0B" unicode="&#x1e0b;" horiz-adv-x="396" 
d="M219 830v-90h-68v90h68zM204 700c109 0 159 -66 159 -174v-353c0 -107 -50 -173 -159 -173h-164v700h164zM203 71c56 0 83 35 83 99v360c0 64 -27 99 -84 99h-84v-558h85z" />
    <glyph glyph-name="uni1E1F" unicode="&#x1e1f;" horiz-adv-x="340" 
d="M214 830v-90h-68v90h68zM279 374v-71h-161v-303h-78v700h278v-71h-200v-255h161z" />
    <glyph glyph-name="uni1E41" unicode="&#x1e41;" horiz-adv-x="523" 
d="M295 832v-90h-68v90h68zM298 1h-75l-116 557v-558h-68v700h109l115 -559l111 559h109v-700h-74v563z" />
    <glyph glyph-name="uni1E57" unicode="&#x1e57;" horiz-adv-x="371" 
d="M217 830v-90h-68v90h68zM193 700c110 0 157 -65 157 -171v-84c0 -111 -52 -169 -163 -169h-69v-276h-78v700h153zM187 346c58 0 86 27 86 94v93c0 64 -23 96 -80 96h-75v-283h69z" />
    <glyph glyph-name="uni1E61" unicode="&#x1e61;" horiz-adv-x="372" 
d="M223 833v-90h-68v90h68zM187 707c106 0 156 -69 156 -175v-19h-74v23c0 63 -24 100 -80 100s-80 -37 -80 -99c0 -157 235 -172 235 -369c0 -106 -51 -175 -158 -175s-157 69 -157 175v40h73v-44c0 -63 26 -100 82 -100s82 37 82 100c0 156 -234 171 -234 368
c0 108 50 175 155 175z" />
    <glyph glyph-name="uni1E6B" unicode="&#x1e6b;" horiz-adv-x="372" 
d="M219 830v-90h-68v90h68zM146 0v629h-129v71h336v-71h-129v-629h-78z" />
    <glyph glyph-name="uogonek" unicode="&#x173;" 
d="M350 169c0 -66 -14 -129 -75 -164c-27 -21 -40 -54 -39 -74c0 -21 18 -30 37 -30s29 4 40 9v-41c-20 -9 -37 -12 -62 -12c-44 0 -75 18 -75 56c-1 30 20 60 53 83c-11 -3 -23 -4 -36 -4c-107 0 -156 71 -156 177v531h77v-535c0 -63 25 -101 82 -101c56 0 81 38 81 101
v535h73v-531z" />
    <glyph glyph-name="uring" unicode="&#x16f;" 
d="M196 881c41 0 74 -32 74 -73s-33 -73 -74 -73s-73 32 -73 73s32 73 73 73zM196 844c-20 0 -36 -15 -36 -36s16 -36 36 -36s37 15 37 36s-17 36 -37 36zM350 169c0 -106 -49 -177 -157 -177c-107 0 -156 71 -156 177v531h77v-535c0 -63 25 -101 82 -101c56 0 81 38 81 101
v535h73v-531z" />
    <glyph glyph-name="utilde" unicode="&#x169;" 
d="M317 802c-16 -40 -41 -57 -72 -57c-39 -1 -60 29 -91 29c-18 0 -31 -8 -42 -30l-39 27c16 41 42 57 73 58c40 0 62 -30 92 -30c17 1 30 9 40 30zM350 169c0 -106 -49 -177 -157 -177c-107 0 -156 71 -156 177v531h77v-535c0 -63 25 -101 82 -101c56 0 81 38 81 101v535
h73v-531z" />
    <glyph glyph-name="v" unicode="v" horiz-adv-x="418" 
d="M99 700l114 -609l113 609h72l-131 -700h-115l-132 700h79z" />
    <glyph glyph-name="w" unicode="w" horiz-adv-x="583" 
d="M226 0h-107l-96 700h76l82 -596l78 595h77l77 -596l79 597h68l-95 -700h-103l-67 475z" />
    <glyph glyph-name="wacute" unicode="&#x1e83;" horiz-adv-x="583" 
d="M391 842l-93 -103h-55l70 103h78zM226 0h-107l-96 700h76l82 -596l78 595h77l77 -596l79 597h68l-95 -700h-103l-67 475z" />
    <glyph glyph-name="wcircumflex" unicode="&#x175;" horiz-adv-x="583" 
d="M240 740h-68l86 101h69l87 -101h-68l-53 59zM226 0h-107l-96 700h76l82 -596l78 595h77l77 -596l79 597h68l-95 -700h-103l-67 475z" />
    <glyph glyph-name="wdieresis" unicode="&#x1e85;" horiz-adv-x="583" 
d="M265 831v-90h-68v90h68zM389 831v-90h-68v90h68zM226 0h-107l-96 700h76l82 -596l78 595h77l77 -596l79 597h68l-95 -700h-103l-67 475z" />
    <glyph glyph-name="wgrave" unicode="&#x1e81;" horiz-adv-x="583" 
d="M277 845l69 -103h-57l-93 103h81zM226 0h-107l-96 700h76l82 -596l78 595h77l77 -596l79 597h68l-95 -700h-103l-67 475z" />
    <glyph glyph-name="x" unicode="x" horiz-adv-x="435" 
d="M214 302l-117 -302h-74l141 361l-132 339h81l108 -280l109 280h73l-131 -339l140 -361h-82z" />
    <glyph glyph-name="y" unicode="y" horiz-adv-x="406" 
d="M164 251l-148 449h81l109 -344l110 344h74l-149 -449v-251h-77v251z" />
    <glyph glyph-name="yacute" unicode="&#xfd;" horiz-adv-x="406" 
d="M307 842l-93 -103h-54l70 103h77zM164 251l-148 449h81l109 -344l110 344h74l-149 -449v-251h-77v251z" />
    <glyph glyph-name="ycircumflex" unicode="&#x177;" horiz-adv-x="406" 
d="M153 740h-68l86 100h69l87 -100h-68l-53 59zM164 251l-148 449h81l109 -344l110 344h74l-149 -449v-251h-77v251z" />
    <glyph glyph-name="ydieresis" unicode="&#xff;" horiz-adv-x="406" 
d="M177 829v-90h-68v90h68zM301 829v-90h-68v90h68zM164 251l-148 449h81l109 -344l110 344h74l-149 -449v-251h-77v251z" />
    <glyph glyph-name="ygrave" unicode="&#x1ef3;" horiz-adv-x="406" 
d="M186 845l69 -103h-57l-93 103h81zM164 251l-148 449h81l109 -344l110 344h74l-149 -449v-251h-77v251z" />
    <glyph glyph-name="z" unicode="z" horiz-adv-x="379" 
d="M347 0h-318v70l240 559h-229v71h309v-70l-241 -559h239v-71z" />
    <glyph glyph-name="zacute" unicode="&#x17a;" horiz-adv-x="379" 
d="M297 845l-93 -103h-54l69 103h78zM347 0h-318v70l240 559h-229v71h309v-70l-241 -559h239v-71z" />
    <glyph glyph-name="zcaron" unicode="&#x17e;" horiz-adv-x="379" 
d="M141 842l52 -60l54 60h68l-87 -101h-69l-86 101h68zM347 0h-318v70l240 559h-229v71h309v-70l-241 -559h239v-71z" />
    <glyph glyph-name="zdotaccent" unicode="&#x17c;" horiz-adv-x="379" 
d="M231 832v-90h-68v90h68zM347 0h-318v70l240 559h-229v71h309v-70l-241 -559h239v-71z" />
    <glyph glyph-name="ordfeminine" unicode="&#xaa;" horiz-adv-x="275" 
d="M147 705c67 0 91 -44 91 -110v-261h-43l-3 55c-12 -37 -38 -60 -78 -60c-54 0 -81 36 -81 99v4c0 95 74 118 155 120v50c0 35 -11 57 -43 57c-35 0 -50 -22 -50 -61v-18h-47v15c0 67 30 110 99 110zM188 514c-65 -3 -104 -28 -104 -75v-7c0 -38 17 -56 49 -56
c34 0 51 24 55 59v79zM238 277v-50h-204v50h204z" />
    <glyph glyph-name="ordmasculine" unicode="&#xba;" horiz-adv-x="277" 
d="M138 705c69 0 103 -45 103 -112v-153c0 -67 -34 -112 -103 -112s-102 45 -102 112v153c0 67 33 112 102 112zM138 659c-36 0 -52 -23 -52 -63v-159c0 -40 16 -63 52 -63s52 23 52 63v159c0 40 -16 63 -52 63zM241 278v-50h-204v50h204z" />
    <glyph glyph-name="uni0410" unicode="&#x410;" horiz-adv-x="422" 
d="M119 141l-27 -141h-72l134 700h113l134 -700h-78l-27 141h-177zM129 208h156l-79 404z" />
    <glyph glyph-name="uni0411" unicode="&#x411;" horiz-adv-x="401" 
d="M200 411c109 0 165 -52 165 -164v-77c0 -109 -51 -170 -161 -170h-163v700h295v-71h-218v-218h82zM204 71c57 0 83 29 83 94v87c0 68 -30 89 -87 89h-82v-270h86z" />
    <glyph glyph-name="uni0412" unicode="&#x412;" horiz-adv-x="392" 
d="M197 700c109 0 152 -52 152 -155v-33c0 -74 -21 -120 -82 -139c68 -19 94 -73 94 -150v-59c0 -105 -51 -164 -160 -164h-161v700h157zM178 403c62 0 94 20 94 93v41c0 62 -21 92 -77 92h-77v-226h60zM201 71c57 0 83 30 83 95v62c0 78 -31 104 -98 104h-68v-261h83z" />
    <glyph glyph-name="uni0413" unicode="&#x413;" horiz-adv-x="356" 
d="M118 629v-629h-77v700h279v-71h-202z" />
    <glyph glyph-name="uni0414" unicode="&#x414;" horiz-adv-x="489" 
d="M385 -96v96h-286v-96h-75v165h45c24 27 29 59 31 102l27 529h281v-631h53v-165h-76zM176 172c-3 -50 -10 -80 -32 -103h185v560h-130z" />
    <glyph glyph-name="uni0415" unicode="&#x415;" horiz-adv-x="360" 
d="M289 390v-70h-171v-249h210v-71h-288v700h288v-71h-210v-239h171z" />
    <glyph glyph-name="uni0401" unicode="&#x401;" horiz-adv-x="360" 
d="M155 831v-90h-68v90h68zM280 831v-90h-69v90h69zM289 390v-70h-171v-249h210v-71h-288v700h288v-71h-210v-239h171z" />
    <glyph glyph-name="uni0416" unicode="&#x416;" horiz-adv-x="613" 
d="M382 330l-37 -66v-264h-77v264l-36 67l-134 -331h-80l160 403l-156 297h78l168 -322v322h77v-322l169 322h78l-155 -295l159 -405h-80z" />
    <glyph glyph-name="uni0417" unicode="&#x417;" 
d="M193 707c108 0 158 -70 158 -176v-18c0 -72 -29 -124 -86 -145c59 -20 86 -74 86 -144v-55c0 -106 -50 -176 -158 -176c-107 0 -157 70 -157 176v68h73v-72c0 -63 26 -101 82 -101c57 0 82 37 82 107v55c0 68 -31 104 -90 104h-33v70h37c52 0 86 35 86 96v32
c0 72 -25 108 -82 108c-56 0 -82 -38 -82 -101v-47h-72v44c0 107 49 175 156 175z" />
    <glyph glyph-name="uni0418" unicode="&#x418;" horiz-adv-x="409" 
d="M225 325l-104 -325h-81v700h69v-522l72 221l102 301h87v-700h-70v557z" />
    <glyph glyph-name="uni0419" unicode="&#x419;" horiz-adv-x="410" 
d="M317 844c0 -61 -41 -98 -108 -98s-106 37 -108 98h49c3 -38 26 -51 59 -51s57 13 60 51h48zM227 331l-106 -331h-81v700h69v-522l66 205l108 317h87v-700h-70v557z" />
    <glyph glyph-name="uni041A" unicode="&#x41a;" horiz-adv-x="409" 
d="M159 304l-41 -69v-235h-78v700h78v-338l186 338h79l-177 -319l183 -381h-80z" />
    <glyph glyph-name="uni041B" unicode="&#x41b;" horiz-adv-x="444" 
d="M189 629l-16 -455c-4 -111 -34 -174 -141 -175h-13v71c65 0 76 33 78 100l19 530h285v-700h-78v629h-134z" />
    <glyph glyph-name="uni041C" unicode="&#x41c;" horiz-adv-x="523" 
d="M298 1h-75l-116 557v-558h-68v700h109l115 -559l111 559h109v-700h-74v563z" />
    <glyph glyph-name="uni041D" unicode="&#x41d;" horiz-adv-x="408" 
d="M118 315v-315h-78v700h78v-315h172v315h78v-700h-78v315h-172z" />
    <glyph glyph-name="uni041E" unicode="&#x41e;" horiz-adv-x="389" 
d="M34 531c0 107 53 176 160 176c108 0 161 -69 161 -176v-362c0 -106 -53 -176 -161 -176c-107 0 -160 70 -160 176v362zM111 165c0 -64 27 -101 83 -101c57 0 83 37 83 101v370c0 63 -26 101 -83 101c-56 0 -83 -38 -83 -101v-370z" />
    <glyph glyph-name="uni041F" unicode="&#x41f;" horiz-adv-x="408" 
d="M118 629v-629h-78v700h328v-700h-78v629h-172z" />
    <glyph glyph-name="uni0420" unicode="&#x420;" horiz-adv-x="371" 
d="M193 700c110 0 157 -65 157 -171v-84c0 -111 -52 -169 -163 -169h-69v-276h-78v700h153zM187 346c58 0 86 27 86 94v93c0 64 -23 96 -80 96h-75v-283h69z" />
    <glyph glyph-name="uni0421" unicode="&#x421;" horiz-adv-x="380" 
d="M191 707c108 0 158 -70 158 -176v-63h-74v67c0 63 -25 101 -82 101c-56 0 -82 -38 -82 -101v-370c0 -63 26 -101 82 -101c57 0 82 38 82 101v91h74v-87c0 -106 -50 -176 -158 -176c-107 0 -157 70 -157 176v362c0 106 50 176 157 176z" />
    <glyph glyph-name="uni0422" unicode="&#x422;" horiz-adv-x="372" 
d="M147 0v629h-129v71h336v-71h-129v-629h-78z" />
    <glyph glyph-name="uni0423" unicode="&#x423;" horiz-adv-x="417" 
d="M250 154c-24 -105 -60 -161 -187 -155v70c60 -3 87 16 100 69l16 46l-161 516h78l71 -243l48 -176l41 176l63 243h81z" />
    <glyph glyph-name="uni0424" unicode="&#x424;" horiz-adv-x="569" 
d="M371 618c112 0 162 -64 162 -175v-191c0 -111 -50 -175 -162 -175h-49v-77h-77v77h-49c-112 0 -162 64 -162 175v191c0 111 50 175 162 175h49v82h77v-82h49zM196 549c-59 0 -85 -34 -85 -101v-201c0 -67 26 -102 85 -102h49v404h-49zM371 145c59 0 86 35 86 102v201
c0 67 -26 101 -86 101h-49v-404h49z" />
    <glyph glyph-name="uni0425" unicode="&#x425;" horiz-adv-x="435" 
d="M214 302l-117 -302h-74l141 361l-132 339h81l108 -280l109 280h73l-131 -339l140 -361h-82z" />
    <glyph glyph-name="uni0427" unicode="&#x427;" horiz-adv-x="401" 
d="M283 310c-25 -36 -67 -55 -109 -55c-94 0 -139 72 -139 166v279h78v-273c0 -59 31 -101 86 -101c47 0 76 29 84 82v292h77v-700h-77v310z" />
    <glyph glyph-name="uni0426" unicode="&#x426;" horiz-adv-x="455" 
d="M352 -94v94h-305v700h77v-629h172v629h79v-631h53v-163h-76z" />
    <glyph glyph-name="uni0428" unicode="&#x428;" horiz-adv-x="581" 
d="M118 700v-629h134v629h78v-629h134v629h77v-700h-501v700h78z" />
    <glyph glyph-name="uni0429" unicode="&#x429;" horiz-adv-x="622" 
d="M520 -94v94h-480v700h78v-629h134v629h77v-629h135v629h77v-631h54v-163h-75z" />
    <glyph glyph-name="uni042C" unicode="&#x42c;" horiz-adv-x="381" 
d="M187 424c111 0 163 -58 163 -169v-84c0 -106 -48 -171 -157 -171h-153v700h78v-276h69zM193 71c57 0 80 32 80 96v93c0 68 -28 94 -86 94h-69v-283h75z" />
    <glyph glyph-name="uni042A" unicode="&#x42a;" horiz-adv-x="438" 
d="M245 424c110 0 163 -58 163 -169v-84c0 -106 -48 -171 -157 -171h-153v630h-88v70h165v-276h70zM251 71c57 0 79 32 79 96v93c0 68 -27 94 -85 94h-70v-283h76z" />
    <glyph glyph-name="uni042B" unicode="&#x42b;" horiz-adv-x="532" 
d="M187 424c111 0 163 -58 163 -169v-84c0 -106 -48 -171 -157 -171h-153v700h78v-276h69zM492 700v-700h-77v700h77zM193 71c57 0 80 32 80 96v93c0 68 -28 94 -86 94h-69v-283h75z" />
    <glyph glyph-name="uni042D" unicode="&#x42d;" horiz-adv-x="380" 
d="M188 707c107 0 157 -70 157 -176v-362c0 -106 -50 -176 -157 -176s-157 70 -157 176v76h73v-80c0 -63 26 -101 82 -101s82 38 82 101v162h-122v70h122v138c0 63 -26 101 -82 101s-82 -38 -82 -101v-56h-72v52c0 106 49 176 156 176z" />
    <glyph glyph-name="uni042E" unicode="&#x42e;" horiz-adv-x="575" 
d="M380 707c107 0 160 -69 160 -176v-362c0 -106 -53 -176 -160 -176c-108 0 -161 70 -161 176v146h-101v-315h-78v700h78v-315h101v146c0 107 53 176 161 176zM380 636c-57 0 -83 -37 -83 -101v-370c0 -63 26 -101 83 -101c56 0 83 38 83 101v370c0 64 -27 101 -83 101z
" />
    <glyph glyph-name="uni042F" unicode="&#x42f;" horiz-adv-x="394" 
d="M221 299c-65 0 -102 -25 -102 -104v-110c0 -47 -4 -65 -13 -85h-79c12 24 14 53 14 84v109c0 75 24 127 87 146c-59 19 -86 67 -86 144v57c0 104 46 160 156 160h156v-700h-78v299h-55zM200 629c-58 0 -81 -33 -81 -96v-67c0 -76 37 -96 98 -96h59v259h-76z" />
    <glyph glyph-name="uni0430" unicode="&#x430;" horiz-adv-x="422" 
d="M119 141l-27 -141h-72l134 700h113l134 -700h-78l-27 141h-177zM129 208h156l-79 404z" />
    <glyph glyph-name="uni0431" unicode="&#x431;" horiz-adv-x="401" 
d="M200 411c109 0 165 -52 165 -164v-77c0 -109 -51 -170 -161 -170h-163v700h295v-71h-218v-218h82zM204 71c57 0 83 29 83 94v87c0 68 -30 89 -87 89h-82v-270h86z" />
    <glyph glyph-name="uni0432" unicode="&#x432;" horiz-adv-x="392" 
d="M197 700c109 0 152 -52 152 -155v-33c0 -74 -21 -120 -82 -139c68 -19 94 -73 94 -150v-59c0 -105 -51 -164 -160 -164h-161v700h157zM178 403c62 0 94 20 94 93v41c0 62 -21 92 -77 92h-77v-226h60zM201 71c57 0 83 30 83 95v62c0 78 -31 104 -98 104h-68v-261h83z" />
    <glyph glyph-name="uni0433" unicode="&#x433;" horiz-adv-x="356" 
d="M118 629v-629h-77v700h279v-71h-202z" />
    <glyph glyph-name="uni0434" unicode="&#x434;" horiz-adv-x="489" 
d="M385 -96v96h-286v-96h-75v165h45c24 27 29 59 31 102l27 529h281v-631h53v-165h-76zM176 172c-3 -50 -10 -80 -32 -103h185v560h-130z" />
    <glyph glyph-name="uni0435" unicode="&#x435;" horiz-adv-x="360" 
d="M289 390v-70h-171v-249h210v-71h-288v700h288v-71h-210v-239h171z" />
    <glyph glyph-name="uni0451" unicode="&#x451;" horiz-adv-x="360" 
d="M155 831v-90h-68v90h68zM280 831v-90h-69v90h69zM289 390v-70h-171v-249h210v-71h-288v700h288v-71h-210v-239h171z" />
    <glyph glyph-name="uni0436" unicode="&#x436;" horiz-adv-x="613" 
d="M382 330l-37 -66v-264h-77v264l-36 67l-134 -331h-80l160 403l-156 297h78l168 -322v322h77v-322l169 322h78l-155 -295l159 -405h-80z" />
    <glyph glyph-name="uni0437" unicode="&#x437;" 
d="M193 707c108 0 158 -70 158 -176v-18c0 -72 -29 -124 -86 -145c59 -20 86 -74 86 -144v-55c0 -106 -50 -176 -158 -176c-107 0 -157 70 -157 176v68h73v-72c0 -63 26 -101 82 -101c57 0 82 37 82 107v55c0 68 -31 104 -90 104h-33v70h37c52 0 86 35 86 96v32
c0 72 -25 108 -82 108c-56 0 -82 -38 -82 -101v-47h-72v44c0 107 49 175 156 175z" />
    <glyph glyph-name="uni0438" unicode="&#x438;" horiz-adv-x="409" 
d="M224 323l-103 -323h-81v700h69v-522l62 193l112 329h87v-700h-70v557z" />
    <glyph glyph-name="uni0439" unicode="&#x439;" horiz-adv-x="410" 
d="M317 843c0 -61 -41 -98 -108 -98s-106 37 -108 98h49c3 -39 26 -51 59 -51s57 12 60 51h48zM230 337l-109 -337h-81v700h69v-522l65 202l109 320h87v-700h-70v557z" />
    <glyph glyph-name="uni043A" unicode="&#x43a;" horiz-adv-x="409" 
d="M159 304l-41 -69v-235h-78v700h78v-338l186 338h79l-177 -319l183 -381h-80z" />
    <glyph glyph-name="uni043B" unicode="&#x43b;" horiz-adv-x="444" 
d="M189 629l-16 -455c-4 -111 -34 -174 -141 -175h-13v71c65 0 76 33 78 100l19 530h285v-700h-78v629h-134z" />
    <glyph glyph-name="uni043C" unicode="&#x43c;" horiz-adv-x="523" 
d="M298 1h-75l-116 557v-558h-68v700h109l115 -559l111 559h109v-700h-74v563z" />
    <glyph glyph-name="uni043D" unicode="&#x43d;" horiz-adv-x="408" 
d="M118 315v-315h-78v700h78v-315h172v315h78v-700h-78v315h-172z" />
    <glyph glyph-name="uni043E" unicode="&#x43e;" horiz-adv-x="389" 
d="M34 531c0 107 53 176 160 176c108 0 161 -69 161 -176v-362c0 -106 -53 -176 -161 -176c-107 0 -160 70 -160 176v362zM111 165c0 -64 27 -101 83 -101c57 0 83 37 83 101v370c0 63 -26 101 -83 101c-56 0 -83 -38 -83 -101v-370z" />
    <glyph glyph-name="uni043F" unicode="&#x43f;" horiz-adv-x="408" 
d="M118 629v-629h-78v700h328v-700h-78v629h-172z" />
    <glyph glyph-name="uni0440" unicode="&#x440;" horiz-adv-x="371" 
d="M193 700c110 0 157 -65 157 -171v-84c0 -111 -52 -169 -163 -169h-69v-276h-78v700h153zM187 346c58 0 86 27 86 94v93c0 64 -23 96 -80 96h-75v-283h69z" />
    <glyph glyph-name="uni0441" unicode="&#x441;" horiz-adv-x="380" 
d="M191 707c108 0 158 -70 158 -176v-63h-74v67c0 63 -25 101 -82 101c-56 0 -82 -38 -82 -101v-370c0 -63 26 -101 82 -101c57 0 82 38 82 101v91h74v-87c0 -106 -50 -176 -158 -176c-107 0 -157 70 -157 176v362c0 106 50 176 157 176z" />
    <glyph glyph-name="uni0442" unicode="&#x442;" horiz-adv-x="372" 
d="M147 0v629h-129v71h336v-71h-129v-629h-78z" />
    <glyph glyph-name="uni0443" unicode="&#x443;" horiz-adv-x="417" 
d="M250 154c-24 -105 -60 -161 -187 -155v70c60 -3 87 16 100 69l16 46l-161 516h78l71 -243l48 -176l41 176l63 243h81z" />
    <glyph glyph-name="uni0444" unicode="&#x444;" horiz-adv-x="569" 
d="M371 618c112 0 162 -64 162 -175v-191c0 -111 -50 -175 -162 -175h-49v-77h-77v77h-49c-112 0 -162 64 -162 175v191c0 111 50 175 162 175h49v82h77v-82h49zM196 549c-59 0 -85 -34 -85 -101v-201c0 -67 26 -102 85 -102h49v404h-49zM371 145c59 0 86 35 86 102v201
c0 67 -26 101 -86 101h-49v-404h49z" />
    <glyph glyph-name="uni0445" unicode="&#x445;" horiz-adv-x="435" 
d="M214 302l-117 -302h-74l141 361l-132 339h81l108 -280l109 280h73l-131 -339l140 -361h-82z" />
    <glyph glyph-name="uni0447" unicode="&#x447;" horiz-adv-x="401" 
d="M283 310c-25 -36 -67 -55 -109 -55c-94 0 -139 72 -139 166v279h78v-273c0 -59 31 -101 86 -101c47 0 76 29 84 82v292h77v-700h-77v310z" />
    <glyph glyph-name="uni0446" unicode="&#x446;" horiz-adv-x="455" 
d="M352 -94v94h-305v700h77v-629h172v629h79v-631h53v-163h-76z" />
    <glyph glyph-name="uni0448" unicode="&#x448;" horiz-adv-x="581" 
d="M118 700v-629h134v629h78v-629h134v629h77v-700h-501v700h78z" />
    <glyph glyph-name="uni0449" unicode="&#x449;" horiz-adv-x="622" 
d="M520 -94v94h-480v700h78v-629h134v629h77v-629h135v629h77v-631h54v-163h-75z" />
    <glyph glyph-name="uni044C" unicode="&#x44c;" horiz-adv-x="381" 
d="M187 424c111 0 163 -58 163 -169v-84c0 -106 -48 -171 -157 -171h-153v700h78v-276h69zM193 71c57 0 80 32 80 96v93c0 68 -28 94 -86 94h-69v-283h75z" />
    <glyph glyph-name="uni044A" unicode="&#x44a;" horiz-adv-x="438" 
d="M245 424c110 0 163 -58 163 -169v-84c0 -106 -48 -171 -157 -171h-153v630h-88v70h165v-276h70zM251 71c57 0 79 32 79 96v93c0 68 -27 94 -85 94h-70v-283h76z" />
    <glyph glyph-name="uni044B" unicode="&#x44b;" horiz-adv-x="532" 
d="M187 424c111 0 163 -58 163 -169v-84c0 -106 -48 -171 -157 -171h-153v700h78v-276h69zM492 700v-700h-77v700h77zM193 71c57 0 80 32 80 96v93c0 68 -28 94 -86 94h-69v-283h75z" />
    <glyph glyph-name="uni044D" unicode="&#x44d;" horiz-adv-x="380" 
d="M188 707c107 0 157 -70 157 -176v-362c0 -106 -50 -176 -157 -176s-157 70 -157 176v76h73v-80c0 -63 26 -101 82 -101s82 38 82 101v162h-122v70h122v138c0 63 -26 101 -82 101s-82 -38 -82 -101v-56h-72v52c0 106 49 176 156 176z" />
    <glyph glyph-name="uni044E" unicode="&#x44e;" horiz-adv-x="575" 
d="M380 707c107 0 160 -69 160 -176v-362c0 -106 -53 -176 -160 -176c-108 0 -161 70 -161 176v146h-101v-315h-78v700h78v-315h101v146c0 107 53 176 161 176zM380 636c-57 0 -83 -37 -83 -101v-370c0 -63 26 -101 83 -101c56 0 83 38 83 101v370c0 64 -27 101 -83 101z
" />
    <glyph glyph-name="uni044F" unicode="&#x44f;" horiz-adv-x="394" 
d="M221 299c-65 0 -102 -25 -102 -104v-110c0 -47 -4 -65 -13 -85h-79c12 24 14 53 14 84v109c0 75 24 127 87 146c-59 19 -86 67 -86 144v57c0 104 46 160 156 160h156v-700h-78v299h-55zM200 629c-58 0 -81 -33 -81 -96v-67c0 -76 37 -96 98 -96h59v259h-76z" />
    <glyph glyph-name="zero" unicode="0" horiz-adv-x="389" 
d="M34 531c0 107 53 176 160 176c108 0 161 -69 161 -176v-361c0 -107 -53 -177 -161 -177c-107 0 -160 70 -160 177v361zM111 165c0 -63 27 -101 83 -101c57 0 83 38 83 101v370c0 64 -26 102 -83 102c-56 0 -83 -38 -83 -102v-370z" />
    <glyph glyph-name="one" unicode="1" horiz-adv-x="338" 
d="M183 573c-26 -16 -60 -28 -97 -30v64c76 3 102 44 120 93h54v-700h-77v573z" />
    <glyph glyph-name="two" unicode="2" 
d="M197 707c109 0 158 -70 158 -177c0 -211 -237 -287 -238 -448v-11h230v-71h-307v60c0 226 237 270 237 467c0 72 -24 110 -82 110c-57 0 -82 -41 -82 -103v-62h-73v57c0 107 49 178 157 178z" />
    <glyph glyph-name="three" unicode="3" 
d="M193 707c108 0 158 -69 158 -176v-18c0 -72 -29 -123 -85 -144c59 -22 85 -75 85 -145v-54c0 -107 -50 -177 -158 -177c-107 0 -157 70 -157 177v48h73v-53c0 -63 26 -101 82 -101c57 0 82 37 82 108v54c0 69 -29 102 -88 104h-42v70h46c52 2 84 35 84 96v32
c0 72 -25 109 -82 109c-56 0 -82 -39 -82 -102v-36h-73v32c0 107 50 176 157 176z" />
    <glyph glyph-name="four" unicode="4" horiz-adv-x="400" 
d="M324 141v-141h-76v141h-226v71l217 488h85v-488h56v-71h-56zM94 212h154v342z" />
    <glyph glyph-name="five" unicode="5" 
d="M118 415c22 38 57 58 104 58c90 0 130 -66 130 -166v-137c0 -107 -51 -177 -158 -177s-157 70 -157 177v47h73v-52c0 -63 26 -101 82 -101s82 38 82 101v136c0 63 -26 101 -82 101c-43 0 -72 -24 -79 -75v-16h-73l19 389h276v-70h-206z" />
    <glyph glyph-name="six" unicode="6" horiz-adv-x="389" 
d="M196 707c108 0 158 -68 158 -175v-13h-73v18c0 63 -26 100 -83 100c-59 0 -85 -38 -85 -113v-157c19 48 57 75 113 75c90 0 130 -65 130 -166v-106c0 -107 -53 -177 -160 -177c-108 0 -161 70 -161 177v357c0 111 50 180 161 180zM196 371c-57 0 -83 -38 -83 -101v-105
c0 -63 26 -101 83 -101c56 0 83 38 83 101v105c0 63 -27 101 -83 101z" />
    <glyph glyph-name="seven" unicode="7" 
d="M273 630h-238v70h317v-68l-180 -632h-78z" />
    <glyph glyph-name="eight" unicode="8" horiz-adv-x="392" 
d="M196 707c108 0 165 -65 165 -173v-22c0 -71 -25 -123 -80 -144c58 -23 80 -78 80 -148v-52c0 -108 -56 -175 -165 -175s-165 67 -165 175v52c0 71 22 124 81 148c-57 22 -81 73 -81 144v22c0 108 57 173 165 173zM196 637c-55 0 -88 -33 -88 -105v-34
c0 -68 33 -98 88 -98s88 30 88 98v34c0 72 -33 105 -88 105zM196 330c-58 0 -88 -33 -88 -101v-59c0 -72 32 -106 88 -106s87 34 88 106v59c0 68 -30 101 -88 101z" />
    <glyph glyph-name="nine" unicode="9" horiz-adv-x="389" 
d="M193 707c108 0 161 -69 161 -176v-357c0 -111 -50 -181 -162 -181c-107 0 -158 69 -158 176v13h73v-18c0 -63 27 -100 83 -100c60 0 86 38 86 112v157c-19 -48 -57 -74 -113 -74c-90 0 -130 64 -130 165v107c0 107 52 176 160 176zM193 636c-56 0 -83 -37 -83 -101v-105
c0 -63 27 -101 83 -101c57 0 83 38 83 101v105c0 64 -26 101 -83 101z" />
    <glyph glyph-name="zero.alt" horiz-adv-x="389" 
d="M34 531c0 107 53 176 160 176c108 0 161 -69 161 -176v-361c0 -107 -53 -177 -161 -177c-107 0 -160 70 -160 177v361zM111 165c0 -63 27 -101 83 -101c57 0 83 38 83 101v370c0 64 -26 102 -83 102c-56 0 -83 -38 -83 -102v-370z" />
    <glyph glyph-name="one.alt" horiz-adv-x="255" 
d="M123 573c-26 -16 -60 -28 -97 -30v64c76 3 102 44 120 93h54v-700h-77v573z" />
    <glyph glyph-name="two.alt" horiz-adv-x="368" 
d="M188 707c109 0 157 -70 157 -177c0 -214 -236 -286 -238 -452v-7h231v-71h-307v60c0 226 237 270 237 467c0 72 -25 110 -82 110s-82 -41 -82 -103v-62h-73v57c0 107 49 178 157 178z" />
    <glyph glyph-name="three.alt" horiz-adv-x="377" 
d="M189 707c107 0 157 -69 157 -176v-18c0 -72 -29 -123 -85 -144c59 -22 85 -75 85 -145v-54c0 -107 -50 -177 -157 -177c-108 0 -158 70 -158 177v48h74v-53c0 -63 25 -101 82 -101c56 0 82 37 82 108v54c0 69 -29 102 -89 104h-42v70h47c52 2 84 35 84 96v32
c0 72 -26 109 -82 109c-57 0 -82 -39 -82 -102v-36h-74v32c0 107 50 176 158 176z" />
    <glyph glyph-name="four.alt" horiz-adv-x="400" 
d="M324 141v-141h-77v141h-225v71l217 488h85v-488h56v-71h-56zM94 212h153v339z" />
    <glyph glyph-name="five.alt" horiz-adv-x="378" 
d="M113 415c22 38 57 58 105 58c89 0 129 -66 129 -166v-137c0 -107 -50 -177 -158 -177c-107 0 -157 70 -157 177v47h73v-52c0 -63 26 -101 82 -101c57 0 82 38 82 101v136c0 63 -25 101 -82 101c-43 0 -72 -24 -78 -75v-16h-74l20 389h276v-70h-207z" />
    <glyph glyph-name="six.alt" horiz-adv-x="386" 
d="M195 707c107 0 158 -68 158 -175v-13h-74v18c0 63 -25 100 -82 100c-59 0 -86 -38 -86 -113v-157c20 48 58 75 114 75c89 0 130 -65 130 -166v-106c0 -107 -53 -177 -161 -177c-107 0 -160 70 -160 177v357c0 111 49 180 161 180zM194 371c-56 0 -83 -38 -83 -101v-105
c0 -63 27 -101 83 -101c57 0 83 38 83 101v105c0 63 -26 101 -83 101z" />
    <glyph glyph-name="seven.alt" horiz-adv-x="349" 
d="M252 630h-232v70h309v-68l-172 -632h-78z" />
    <glyph glyph-name="eight.alt" horiz-adv-x="393" 
d="M196 707c109 0 166 -65 166 -173v-22c0 -71 -25 -123 -80 -144c58 -23 80 -78 80 -148v-52c0 -108 -56 -175 -166 -175c-109 0 -165 67 -165 175v52c0 71 23 124 81 148c-56 22 -81 73 -81 144v22c0 108 57 173 165 173zM196 637c-54 0 -87 -33 -87 -105v-34
c0 -68 32 -98 87 -98s88 30 88 98v34c0 72 -32 105 -88 105zM196 330c-57 0 -87 -33 -87 -101v-59c0 -72 32 -106 87 -106c57 0 88 34 88 106v59c0 68 -29 101 -88 101z" />
    <glyph glyph-name="nine.alt" horiz-adv-x="386" 
d="M192 707c107 0 160 -69 160 -176v-357c0 -111 -49 -181 -161 -181c-107 0 -158 69 -158 176v13h73v-18c0 -63 27 -100 83 -100c59 0 86 38 86 112v157c-20 -48 -58 -74 -114 -74c-89 0 -130 64 -130 165v107c0 107 53 176 161 176zM192 636c-57 0 -83 -37 -83 -101v-105
c0 -63 26 -101 83 -101c56 0 83 38 83 101v105c0 64 -27 101 -83 101z" />
    <glyph glyph-name="uni2080" unicode="&#x2080;" horiz-adv-x="277" 
d="M36 271c0 69 33 113 102 113s103 -44 103 -113v-228c0 -69 -34 -113 -103 -113s-102 44 -102 113v228zM86 39c0 -39 16 -63 52 -63s52 24 52 63v236c0 39 -16 63 -52 63s-52 -24 -52 -63v-236z" />
    <glyph glyph-name="uni2081" unicode="&#x2081;" horiz-adv-x="189" 
d="M91 302c-17 -10 -38 -16 -61 -18v37c48 1 64 27 76 58h35v-444h-50v367z" />
    <glyph glyph-name="uni2082" unicode="&#x2082;" horiz-adv-x="275" 
d="M142 385c69 0 100 -45 100 -113c0 -135 -153 -184 -151 -287v-4h146v-46h-196v38c0 143 151 172 151 298c0 44 -16 68 -52 68c-35 0 -51 -25 -51 -65v-38h-48v35c0 68 31 114 101 114z" />
    <glyph glyph-name="uni2083" unicode="&#x2083;" horiz-adv-x="275" 
d="M138 384c68 0 100 -44 100 -113v-11c0 -45 -17 -77 -52 -91c36 -14 52 -48 52 -92v-34c0 -69 -32 -113 -100 -113c-69 0 -101 44 -101 113v30h48v-34c0 -39 16 -63 51 -63c36 0 52 23 52 68v34c0 43 -19 65 -55 65h-27v46h29c32 0 53 23 53 61v20c0 45 -16 68 -52 68
c-35 0 -51 -24 -51 -63v-23h-48v19c0 69 32 113 101 113z" />
    <glyph glyph-name="uni2084" unicode="&#x2084;" horiz-adv-x="283" 
d="M222 22v-89h-50v89h-143v46l138 309h55v-309h35v-46h-35zM75 68h97v212z" />
    <glyph glyph-name="uni2085" unicode="&#x2085;" horiz-adv-x="275" 
d="M86 40c0 -40 16 -63 51 -63s51 23 51 63v86c0 39 -16 63 -51 63c-25 0 -46 -15 -49 -47v-10h-48l13 248h175v-46h-131l-6 -134c14 23 37 35 66 35c56 0 82 -42 82 -105v-88c0 -67 -32 -112 -101 -112c-68 0 -100 45 -100 112v31h48v-33z" />
    <glyph glyph-name="uni2086" unicode="&#x2086;" horiz-adv-x="277" 
d="M140 384c69 0 101 -44 101 -112v-8h-48v11c0 40 -16 63 -51 63c-38 0 -54 -23 -54 -71v-96c13 29 37 45 71 45c57 0 83 -42 83 -106v-67c0 -68 -33 -113 -102 -113s-103 45 -103 113v226c0 70 32 115 103 115zM140 170c-36 0 -52 -24 -52 -64v-67c0 -40 16 -63 52 -63
c35 0 52 23 52 63v67c0 40 -17 64 -52 64z" />
    <glyph glyph-name="uni2087" unicode="&#x2087;" horiz-adv-x="275" 
d="M187 335h-150v46h202v-44l-115 -400h-50z" />
    <glyph glyph-name="uni2088" unicode="&#x2088;" horiz-adv-x="279" 
d="M139 384c69 0 106 -42 106 -110v-15c0 -43 -15 -76 -49 -91c35 -16 49 -51 49 -94v-33c0 -68 -36 -111 -106 -111c-69 0 -105 43 -105 111v33c0 43 14 78 48 94c-33 15 -48 48 -48 91v15c0 68 37 110 105 110zM139 338c-34 0 -55 -20 -55 -66v-21c0 -43 20 -62 55 -62
c34 0 55 19 55 62v21c0 46 -20 66 -55 66zM139 143c-36 0 -55 -20 -55 -63v-38c0 -45 20 -66 55 -66s55 21 55 66v38c0 43 -18 63 -55 63z" />
    <glyph glyph-name="uni2089" unicode="&#x2089;" horiz-adv-x="277" 
d="M137 384c69 0 102 -45 102 -113v-226c0 -70 -31 -115 -103 -115c-68 0 -101 44 -101 112v8h48v-11c0 -40 17 -63 52 -63c37 0 54 23 54 71v96c-13 -29 -37 -45 -72 -45c-56 0 -82 42 -82 106v67c0 68 33 113 102 113zM137 338c-35 0 -52 -23 -52 -63v-67
c0 -40 17 -64 52 -64s52 24 52 64v67c0 40 -17 63 -52 63z" />
    <glyph glyph-name="uni2070" unicode="&#x2070;" horiz-adv-x="277" 
d="M36 687c0 69 33 113 102 113s103 -44 103 -113v-228c0 -69 -34 -113 -103 -113s-102 44 -102 113v228zM86 455c0 -39 16 -63 52 -63s52 24 52 63v236c0 39 -16 63 -52 63s-52 -24 -52 -63v-236z" />
    <glyph glyph-name="uni00B9" unicode="&#xb9;" horiz-adv-x="189" 
d="M30 737c48 1 64 27 76 58h35v-444h-50v367c-17 -10 -38 -16 -61 -18v37z" />
    <glyph glyph-name="uni00B2" unicode="&#xb2;" horiz-adv-x="275" 
d="M142 801c69 0 100 -45 100 -113c0 -135 -149 -181 -151 -285v-6h146v-46h-196v38c0 143 151 172 151 298c0 44 -16 68 -52 68c-35 0 -51 -25 -51 -65v-38h-48v35c0 68 31 114 101 114z" />
    <glyph glyph-name="uni00B3" unicode="&#xb3;" horiz-adv-x="275" 
d="M138 800c68 0 100 -44 100 -113v-11c0 -45 -17 -77 -52 -91c37 -14 52 -48 52 -92v-34c0 -69 -32 -113 -100 -113c-69 0 -101 44 -101 113v30h48v-34c0 -39 16 -63 51 -63c36 0 52 23 52 68v34c0 43 -19 65 -55 65h-27v46h29c32 0 53 23 53 61v20c0 45 -16 68 -52 68
c-35 0 -51 -24 -51 -63v-23h-48v19c0 69 32 113 101 113z" />
    <glyph glyph-name="uni2074" unicode="&#x2074;" horiz-adv-x="283" 
d="M222 439v-88h-50v88h-143v47l138 309h55v-309h35v-47h-35zM75 486h97v212z" />
    <glyph glyph-name="uni2075" unicode="&#x2075;" horiz-adv-x="275" 
d="M86 454c0 -40 16 -63 51 -63s51 23 51 63v86c0 39 -16 63 -51 63c-25 0 -46 -15 -49 -47v-10h-48l13 248h175v-46h-131l-6 -133c14 23 37 35 66 35c56 0 82 -42 82 -106v-87c0 -68 -32 -113 -101 -113c-68 0 -100 45 -100 113v30h48v-33z" />
    <glyph glyph-name="uni2076" unicode="&#x2076;" horiz-adv-x="277" 
d="M140 800c69 0 101 -44 101 -112v-8h-48v11c0 40 -16 63 -51 63c-38 0 -54 -23 -54 -71v-96c13 29 37 45 71 45c57 0 83 -42 83 -106v-67c0 -68 -33 -113 -102 -113s-103 45 -103 113v226c0 70 32 115 103 115zM140 586c-36 0 -52 -24 -52 -64v-67c0 -40 16 -63 52 -63
c35 0 52 23 52 63v67c0 40 -17 64 -52 64z" />
    <glyph glyph-name="uni2077" unicode="&#x2077;" horiz-adv-x="275" 
d="M187 749h-150v46h202v-44l-115 -400h-50z" />
    <glyph glyph-name="uni2078" unicode="&#x2078;" horiz-adv-x="279" 
d="M139 800c69 0 106 -42 106 -110v-15c0 -43 -15 -76 -49 -91c35 -16 49 -51 49 -94v-33c0 -68 -36 -111 -106 -111c-69 0 -105 43 -105 111v33c0 43 14 78 48 94c-33 15 -48 48 -48 91v15c0 68 37 110 105 110zM139 754c-34 0 -55 -20 -55 -66v-21c0 -43 20 -62 55 -62
c34 0 55 19 55 62v21c0 46 -20 66 -55 66zM139 559c-36 0 -55 -20 -55 -63v-38c0 -45 20 -66 55 -66s55 21 55 66v38c0 43 -18 63 -55 63z" />
    <glyph glyph-name="uni2079" unicode="&#x2079;" horiz-adv-x="277" 
d="M137 800c69 0 102 -45 102 -113v-226c0 -70 -31 -115 -103 -115c-68 0 -101 44 -101 112v8h48v-11c0 -40 17 -63 52 -63c37 0 54 23 54 71v96c-13 -29 -37 -45 -72 -45c-56 0 -82 42 -82 106v67c0 68 33 113 102 113zM137 754c-35 0 -52 -23 -52 -63v-67
c0 -40 17 -64 52 -64s52 24 52 64v67c0 40 -17 63 -52 63z" />
    <glyph glyph-name="fraction" unicode="&#x2044;" horiz-adv-x="164" 
d="M244 700l-276 -700h-47l276 700h47z" />
    <glyph glyph-name="onehalf" unicode="&#xbd;" horiz-adv-x="599" 
d="M118 623c-17 -10 -38 -16 -61 -18v37c48 1 64 27 76 58h35v-444h-50v367zM439 700l-276 -700h-47l276 700h47zM466 450c69 0 100 -45 100 -113c0 -134 -149 -180 -151 -284v-7h146v-46h-196v38c0 143 151 172 151 298c0 44 -16 68 -52 68c-35 0 -51 -25 -51 -65v-38h-48
v35c0 68 31 114 101 114z" />
    <glyph glyph-name="uni2153" unicode="&#x2153;" horiz-adv-x="596" 
d="M118 623c-17 -10 -38 -16 -61 -18v37c48 1 64 27 76 58h35v-444h-50v367zM439 700l-276 -700h-47l276 700h47zM458 449c69 0 101 -44 101 -113v-11c0 -45 -17 -77 -53 -91c37 -14 53 -48 53 -92v-34c0 -69 -32 -113 -101 -113s-100 44 -100 113v30h48v-34
c0 -39 16 -63 51 -63s51 23 51 68v34c0 43 -18 65 -55 65h-27v46h29c33 0 54 23 53 61v20c0 45 -16 68 -51 68s-51 -24 -51 -63v-23h-48v19c0 69 31 113 100 113z" />
    <glyph glyph-name="uni2154" unicode="&#x2154;" horiz-adv-x="618" 
d="M142 705c69 0 100 -45 100 -113c0 -135 -152 -183 -151 -286v-5h146v-46h-196v38c0 144 151 173 151 298c0 45 -16 68 -52 68c-35 0 -51 -25 -51 -65v-38h-48v36c0 68 31 113 101 113zM200 0h-47l276 700h47zM481 449c68 0 100 -44 100 -113v-11c0 -45 -17 -77 -53 -91
c37 -14 53 -48 53 -92v-34c0 -69 -32 -113 -100 -113c-69 0 -101 44 -101 113v30h48v-34c0 -39 16 -63 51 -63s51 23 51 68v34c0 43 -18 65 -55 65h-27v46h29c33 0 54 23 53 61v20c0 45 -16 68 -51 68s-51 -24 -51 -63v-23h-48v19c0 69 32 113 101 113z" />
    <glyph glyph-name="onequarter" unicode="&#xbc;" horiz-adv-x="577" 
d="M118 623c-17 -10 -38 -16 -61 -18v37c48 1 64 27 76 58h35v-444h-50v367zM183 0h-47l276 700h47zM516 0h-50v88h-143v47l137 309h56v-309h34v-47h-34v-88zM466 135v212l-97 -212h97z" />
    <glyph glyph-name="threequarters" unicode="&#xbe;" horiz-adv-x="602" 
d="M138 705c68 0 100 -44 100 -113v-11c0 -45 -17 -77 -52 -91c37 -14 52 -48 52 -92v-34c0 -69 -32 -113 -100 -113c-69 0 -101 44 -101 113v30h48v-34c0 -39 16 -63 51 -63c36 0 52 23 52 68v34c0 43 -19 65 -55 65h-27v46h29c32 0 53 23 53 61v20c0 45 -16 68 -52 68
c-35 0 -51 -24 -51 -63v-23h-48v19c0 69 32 113 101 113zM444 700h47l-276 -700h-47zM491 88h-143v47l137 309h56v-309h34v-47h-34v-88h-50v88zM394 135h97v212z" />
    <glyph glyph-name="oneeighth" unicode="&#x215b;" horiz-adv-x="601" 
d="M118 623c-17 -10 -38 -16 -61 -18v37c48 1 64 27 76 58h35v-444h-50v367zM116 0l276 700h47l-276 -700h-47zM462 449c68 0 105 -42 105 -110v-15c0 -43 -15 -76 -48 -91c34 -16 48 -51 48 -94v-33c0 -68 -36 -111 -105 -111c-70 0 -106 43 -106 111v33c0 43 14 78 49 94
c-34 15 -49 48 -49 91v15c0 68 37 110 106 110zM462 403c-35 0 -55 -20 -55 -66v-21c0 -43 20 -62 55 -62c34 0 55 19 55 62v21c0 46 -21 66 -55 66zM462 208c-37 0 -55 -20 -55 -63v-38c0 -45 20 -66 55 -66s55 21 55 66v38c0 43 -19 63 -55 63z" />
    <glyph glyph-name="threeeighths" unicode="&#x215c;" horiz-adv-x="626" 
d="M138 705c68 0 100 -44 100 -113v-11c0 -45 -17 -77 -52 -91c37 -14 52 -48 52 -92v-34c0 -69 -32 -113 -100 -113c-69 0 -101 44 -101 113v30h48v-34c0 -39 16 -63 51 -63c36 0 52 23 52 68v34c0 43 -19 65 -55 65h-27v46h29c32 0 53 23 53 61v20c0 45 -16 68 -52 68
c-35 0 -51 -24 -51 -63v-23h-48v19c0 69 32 113 101 113zM473 700l-276 -700h-47l276 700h47zM487 449c69 0 105 -42 105 -110v-15c0 -43 -14 -76 -48 -91c35 -16 48 -51 48 -94v-33c0 -68 -36 -111 -105 -111s-105 43 -105 111v33c0 43 13 78 48 94c-34 15 -48 48 -48 91
v15c0 68 36 110 105 110zM487 403c-34 0 -55 -20 -55 -66v-21c0 -43 20 -62 55 -62c34 0 55 19 55 62v21c0 46 -21 66 -55 66zM487 208c-37 0 -55 -20 -55 -63v-38c0 -45 20 -66 55 -66s55 21 55 66v38c0 43 -18 63 -55 63z" />
    <glyph glyph-name="fiveeighths" unicode="&#x215d;" horiz-adv-x="626" 
d="M425 700h47l-276 -700h-47zM91 520c14 23 37 35 66 35c56 0 82 -42 82 -106v-87c0 -68 -32 -113 -101 -113c-68 0 -100 45 -100 113v30h48v-33c0 -40 16 -63 51 -63s51 23 51 63v86c0 39 -16 63 -51 63c-25 0 -46 -15 -49 -47v-10h-48l13 248h175v-46h-131zM486 449
c69 0 106 -42 106 -110v-15c0 -43 -15 -76 -49 -91c35 -16 49 -51 49 -94v-33c0 -68 -36 -111 -106 -111c-69 0 -105 43 -105 111v33c0 43 14 78 48 94c-33 15 -48 48 -48 91v15c0 68 37 110 105 110zM486 403c-34 0 -55 -20 -55 -66v-21c0 -43 20 -62 55 -62
c34 0 55 19 55 62v21c0 46 -20 66 -55 66zM486 208c-36 0 -55 -20 -55 -63v-38c0 -45 20 -66 55 -66s55 21 55 66v38c0 43 -18 63 -55 63z" />
    <glyph glyph-name="seveneighths" unicode="&#x215e;" horiz-adv-x="594" 
d="M187 654h-150v46h202v-44l-115 -400h-50zM144 0h-47l276 700h47zM454 449c69 0 106 -42 106 -110v-15c0 -43 -15 -76 -49 -91c35 -16 49 -51 49 -94v-33c0 -68 -36 -111 -106 -111c-69 0 -105 43 -105 111v33c0 43 13 78 48 94c-34 15 -48 48 -48 91v15
c0 68 36 110 105 110zM454 403c-34 0 -55 -20 -55 -66v-21c0 -43 20 -62 55 -62c34 0 55 19 55 62v21c0 46 -20 66 -55 66zM454 208c-37 0 -55 -20 -55 -63v-38c0 -45 20 -66 55 -66s55 21 55 66v38c0 43 -18 63 -55 63z" />
    <glyph glyph-name="period" unicode="." horiz-adv-x="155" 
d="M115 97v-97h-75v97h75z" />
    <glyph glyph-name="comma" unicode="," horiz-adv-x="160" 
d="M74 0h-29v97h75v-90l-39 -95h-32z" />
    <glyph glyph-name="colon" unicode=":" horiz-adv-x="155" 
d="M115 478v-97h-75v97h75zM115 97v-97h-75v97h75z" />
    <glyph glyph-name="semicolon" unicode=";" horiz-adv-x="160" 
d="M120 478v-97h-75v97h75zM74 0h-29v97h75v-90l-39 -95h-32z" />
    <glyph glyph-name="ellipsis" unicode="&#x2026;" horiz-adv-x="379" 
d="M115 97v-97h-75v97h75zM227 97v-97h-75v97h75zM339 97v-97h-75v97h75z" />
    <glyph glyph-name="exclam" unicode="!" horiz-adv-x="158" 
d="M40 371v329h78v-329l-10 -216h-58zM116 97v-97h-75v97h75z" />
    <glyph glyph-name="exclamdown" unicode="&#xa1;" horiz-adv-x="158" 
d="M116 700v-96h-75v96h75zM40 309l10 236h58l10 -236v-309h-78v309z" />
    <glyph glyph-name="question" unicode="?" horiz-adv-x="361" 
d="M182 707c108 0 156 -70 156 -177c0 -169 -139 -202 -139 -336c0 -13 2 -26 5 -38h-70c-3 12 -5 24 -5 40c0 153 131 176 131 338c0 63 -23 103 -80 103s-80 -41 -80 -103v-62h-73v57c0 106 48 178 155 178zM205 97v-97h-74v97h74z" />
    <glyph glyph-name="questiondown" unicode="&#xbf;" horiz-adv-x="361" 
d="M231 700v-97h-75v97h75zM227 544c4 -12 6 -24 6 -40c-1 -153 -132 -176 -132 -338c0 -63 23 -103 80 -103s80 41 80 103v62h74v-57c0 -106 -48 -178 -156 -178s-155 70 -155 177c0 169 138 202 138 336c0 13 -1 26 -4 38h69z" />
    <glyph glyph-name="periodcentered" unicode="&#xb7;" horiz-adv-x="155" 
d="M115 403v-97h-75v97h75z" />
    <glyph glyph-name="bullet" unicode="&#x2022;" horiz-adv-x="328" 
d="M164 455c58 0 105 -47 105 -105s-47 -105 -105 -105s-105 47 -105 105s47 105 105 105z" />
    <glyph glyph-name="asterisk" unicode="*" horiz-adv-x="395" 
d="M221 510l106 -117l-51 -38l-79 139l-78 -139l-51 38l105 117l-155 32l19 61l146 -64l-18 158h64l-17 -158l146 63l19 -61z" />
    <glyph glyph-name="numbersign" unicode="#" horiz-adv-x="412" 
d="M327 472l-21 -205h56l-6 -56h-56l-22 -211h-64l22 211h-91l-23 -211h-64l23 211h-58l6 56h57l22 205h-59l6 56h58l18 172h64l-18 -172h92l18 172h64l-18 -172h56l-6 -56h-56zM263 472h-91l-22 -205h92z" />
    <glyph glyph-name="slash" unicode="/" horiz-adv-x="376" 
d="M360 700l-276 -700h-68l276 700h68z" />
    <glyph glyph-name="backslash" unicode="\" horiz-adv-x="376" 
d="M84 700l276 -700h-68l-276 700h68z" />
    <glyph glyph-name="parenleft" unicode="(" horiz-adv-x="241" 
d="M194 636c-54 0 -72 -29 -72 -90v-392c0 -61 17 -90 72 -90h23v-64h-28c-107 0 -144 49 -144 154v392c0 105 37 154 144 154h28v-64h-23z" />
    <glyph glyph-name="parenright" unicode=")" horiz-adv-x="241" 
d="M52 700c107 0 144 -49 144 -154v-392c0 -105 -37 -154 -144 -154h-28v64h23c55 0 72 29 72 90v392c0 61 -18 90 -72 90h-23v64h28z" />
    <glyph glyph-name="braceleft" unicode="{" horiz-adv-x="257" 
d="M214 636c-42 0 -54 -24 -57 -77l-6 -113c-2 -42 -12 -82 -65 -96c53 -14 63 -54 65 -96l6 -113c3 -53 15 -77 57 -77h19v-64h-46c-63 0 -95 39 -100 107l-7 136c-3 49 -11 70 -60 74v66c49 4 57 25 60 74l7 136c5 68 37 107 100 107h46v-64h-19z" />
    <glyph glyph-name="braceright" unicode="}" horiz-adv-x="257" 
d="M70 700c62 0 95 -39 99 -107l8 -136c3 -49 10 -70 59 -74v-66c-49 -4 -56 -25 -59 -74l-8 -136c-4 -68 -37 -107 -99 -107h-46v64h19c42 0 54 24 57 77l6 113c2 42 11 82 65 96c-54 14 -63 54 -65 96l-6 113c-3 53 -15 77 -57 77h-19v64h46z" />
    <glyph glyph-name="bracketleft" unicode="[" horiz-adv-x="242" 
d="M214 64v-64h-169v700h169v-64h-92v-572h92z" />
    <glyph glyph-name="bracketright" unicode="]" horiz-adv-x="242" 
d="M119 64v572h-91v64h169v-700h-169v64h91z" />
    <glyph glyph-name="hyphen" unicode="-" horiz-adv-x="265" 
d="M37 385h191v-70h-191v70z" />
    <glyph glyph-name="uni00AD" unicode="&#xad;" horiz-adv-x="265" 
d="M37 385h191v-70h-191v70z" />
    <glyph glyph-name="endash" unicode="&#x2013;" horiz-adv-x="458" 
d="M13 382h432v-64h-432v64z" />
    <glyph glyph-name="emdash" unicode="&#x2014;" horiz-adv-x="833" 
d="M13 382h807v-64h-807v64z" />
    <glyph glyph-name="figuredash" unicode="&#x2012;" horiz-adv-x="425" 
d="M13 382h399v-64h-399v64z" />
    <glyph glyph-name="underscore" unicode="_" horiz-adv-x="507" 
d="M490 -10v-57h-477v57h477z" />
    <glyph glyph-name="quotesinglbase" unicode="&#x201a;" horiz-adv-x="160" 
d="M81 -88h-32l25 88h-29v97h75v-90z" />
    <glyph glyph-name="quotedblbase" unicode="&#x201e;" horiz-adv-x="274" 
d="M81 -88h-32l25 88h-29v97h75v-90zM196 -88h-33l25 88h-29v97h75v-90z" />
    <glyph glyph-name="quotedblleft" unicode="&#x201c;" horiz-adv-x="271" 
d="M78 700h33l-25 -88h29v-97h-75v90zM190 700h32l-24 -88h28v-97h-74v90z" />
    <glyph glyph-name="quotedblright" unicode="&#x201d;" horiz-adv-x="271" 
d="M76 515h-32l24 88h-28v97h74v-90zM188 515h-33l25 88h-29v97h75v-90z" />
    <glyph glyph-name="quoteleft" unicode="&#x2018;" horiz-adv-x="160" 
d="M78 700h33l-25 -88h29v-97h-75v90z" />
    <glyph glyph-name="quoteright" unicode="&#x2019;" horiz-adv-x="160" 
d="M81 515h-32l25 88h-29v97h75v-89z" />
    <glyph glyph-name="guillemotleft" unicode="&#xab;" horiz-adv-x="320" 
d="M24 351l63 251h71l-63 -251l63 -261h-71zM162 351l64 251h70l-63 -251l63 -261h-70z" />
    <glyph glyph-name="guillemotright" unicode="&#xbb;" horiz-adv-x="320" 
d="M87 351l-63 251h70l64 -251l-64 -261h-70zM225 351l-63 251h70l64 -251l-64 -261h-70z" />
    <glyph glyph-name="guilsinglleft" unicode="&#x2039;" horiz-adv-x="183" 
d="M24 351l62 257h74l-62 -257l62 -268h-74z" />
    <glyph glyph-name="guilsinglright" unicode="&#x203a;" horiz-adv-x="183" 
d="M85 351l-61 257h73l63 -257l-63 -267h-73z" />
    <glyph glyph-name="quotedbl" unicode="&#x22;" horiz-adv-x="265" 
d="M115 700l-11 -189h-54l-10 189h75zM225 700l-11 -189h-54l-10 189h75z" />
    <glyph glyph-name="quotesingle" unicode="'" horiz-adv-x="151" 
d="M113 700l-11 -189h-54l-10 189h75z" />
    <glyph glyph-name="space" unicode=" " horiz-adv-x="155" 
 />
    <glyph glyph-name="uni00A0" unicode="&#xa0;" horiz-adv-x="155" 
 />
    <glyph glyph-name="CR" horiz-adv-x="155" 
 />
    <glyph glyph-name="Euro" unicode="&#x20ac;" horiz-adv-x="397" 
d="M57 531c0 106 47 176 154 176s154 -70 154 -176v-45h-73v49c0 62 -23 101 -79 101s-79 -39 -79 -101v-108h174v-40h-174v-69h174v-41h-174v-112c0 -62 23 -101 79 -101s79 39 79 101v54h73v-50c0 -105 -47 -176 -154 -176s-154 71 -154 176v108h-44v41h44v69h-44v40h44
v104z" />
    <glyph glyph-name="cent" unicode="&#xa2;" 
d="M225 661c87 -11 127 -76 127 -171v-40h-73v44c0 63 -26 99 -82 99c-57 0 -82 -38 -82 -101v-284c0 -62 25 -100 82 -100c56 0 82 37 82 100v67h73v-62c0 -96 -40 -162 -127 -173v-50h-64v50c-85 12 -124 79 -124 173v274c0 94 39 161 124 173v50h64v-49z" />
    <glyph glyph-name="currency" unicode="&#xa4;" horiz-adv-x="372" 
d="M286 418c14 -19 22 -43 22 -68c0 -26 -8 -50 -22 -69l52 -51l-32 -31l-51 50c-19 -13 -44 -21 -69 -21c-26 0 -49 8 -69 21l-51 -50l-31 31l51 51c-14 19 -22 43 -22 69c0 25 8 50 22 68l-51 52l31 31l52 -51c19 14 42 22 68 22c25 0 49 -8 69 -22l51 51l32 -31zM186 424
c-41 0 -74 -33 -74 -74s33 -74 74 -74s75 33 75 74s-34 74 -75 74z" />
    <glyph glyph-name="dollar" unicode="$" 
d="M226 697c85 -12 124 -78 124 -172v-19h-73v24c0 62 -25 100 -81 100c-55 0 -80 -38 -80 -100c0 -157 235 -158 235 -355c0 -94 -40 -161 -125 -173v-53h-64v53c-87 12 -126 78 -126 173v43h73v-48c0 -63 26 -99 82 -99c57 0 82 36 82 99c0 156 -234 158 -234 355
c0 96 39 159 123 172v56h64v-56z" />
    <glyph glyph-name="sterling" unicode="&#xa3;" horiz-adv-x="391" 
d="M200 707c107 0 155 -72 155 -178v-56h-74v60c0 63 -22 103 -79 103s-80 -39 -80 -102c0 -122 51 -166 73 -248h134v-61h-129c1 -54 -18 -101 -69 -154h221v-71h-319v68c54 22 102 78 97 157h-83v61h73c-25 78 -76 123 -76 244c0 107 48 177 156 177z" />
    <glyph glyph-name="uni20B9" unicode="&#x20b9;" horiz-adv-x="388" 
d="M245 639c34 -21 49 -61 51 -102h61v-61h-61c-6 -93 -69 -153 -165 -153h-17l242 -323h-84l-241 323v60h80c74 0 108 32 109 93h-188v61h188c0 66 -37 102 -109 102h-79v61h325v-61h-112z" />
    <glyph glyph-name="yen" unicode="&#xa5;" horiz-adv-x="414" 
d="M246 232v-59h100v-40h-100v-133h-78v133h-100v40h100v59h-100v41h94l-144 427h81l111 -342l112 342h74l-145 -427h95v-41h-100z" />
    <glyph glyph-name="plus" unicode="+" horiz-adv-x="392" 
d="M224 322v-141h-56v141h-138v56h138v139h56v-139h138v-56h-138z" />
    <glyph glyph-name="minus" unicode="&#x2212;" horiz-adv-x="392" 
d="M362 378v-56h-332v56h332z" />
    <glyph glyph-name="multiply" unicode="&#xd7;" horiz-adv-x="366" 
d="M289 206l-106 106l-106 -106l-38 38l105 106l-105 105l38 38l106 -105l106 105l38 -38l-106 -105l106 -106z" />
    <glyph glyph-name="divide" unicode="&#xf7;" horiz-adv-x="350" 
d="M212 527v-97h-75v97h75zM320 378v-56h-290v56h290zM212 270v-97h-75v97h75z" />
    <glyph glyph-name="equal" unicode="=" horiz-adv-x="350" 
d="M313 456v-56h-276v56h276zM313 314v-56h-276v56h276z" />
    <glyph glyph-name="greater" unicode="&#x3e;" horiz-adv-x="383" 
d="M40 252l237 98l-237 98v57l310 -127v-56l-310 -127v57z" />
    <glyph glyph-name="less" unicode="&#x3c;" horiz-adv-x="383" 
d="M343 195l-310 127v56l310 127v-57l-237 -98l237 -98v-57z" />
    <glyph glyph-name="plusminus" unicode="&#xb1;" horiz-adv-x="392" 
d="M168 237v99h-131v56h131v125h56v-125h131v-56h-131v-99h131v-56h-318v56h131z" />
    <glyph glyph-name="approxequal" unicode="&#x2248;" horiz-adv-x="396" 
d="M125 492c57 0 105 -63 151 -62c25 1 39 19 64 56l38 -38c-37 -57 -66 -76 -103 -77c-55 -1 -102 62 -150 61c-27 0 -43 -17 -69 -55l-38 35c39 58 70 79 107 80zM125 328c57 1 105 -62 151 -61c25 0 39 19 64 55l38 -37c-37 -57 -66 -77 -103 -77c-55 -1 -102 61 -150 61
c-27 0 -43 -18 -69 -55l-38 35c39 58 70 79 107 79z" />
    <glyph glyph-name="asciitilde" unicode="~" horiz-adv-x="396" 
d="M125 410c57 1 104 -62 150 -61c25 0 40 18 65 55l38 -38c-37 -57 -66 -76 -103 -77c-56 -1 -103 62 -150 62c-27 0 -43 -18 -69 -56l-38 36c39 58 69 79 107 79z" />
    <glyph glyph-name="logicalnot" unicode="&#xac;" horiz-adv-x="388" 
d="M30 322v56h328v-191h-56v135h-272z" />
    <glyph glyph-name="asciicircum" unicode="^" horiz-adv-x="403" 
d="M90 390h-63l146 310h57l146 -310h-63l-112 239z" />
    <glyph glyph-name="infinity" unicode="&#x221e;" horiz-adv-x="583" 
d="M418 483c82 0 132 -43 132 -125s-50 -124 -132 -124h-13c-53 0 -92 16 -109 55c-19 -41 -60 -55 -112 -55h-12c-82 0 -133 42 -133 124s51 125 133 125h12c52 0 93 -15 112 -56c17 40 56 56 109 56h13zM173 429c-57 0 -79 -29 -79 -71s22 -69 79 -70h18c53 0 78 26 78 70
s-25 71 -78 71h-18zM397 429c-58 0 -77 -29 -77 -71s19 -69 77 -70h18c53 0 80 26 80 70s-27 71 -80 71h-18z" />
    <glyph glyph-name="uni00B5" unicode="&#xb5;" horiz-adv-x="398" 
d="M286 72c-18 -48 -57 -79 -101 -79c-35 0 -58 19 -68 46v-131h-78v592h78v-334c0 -63 26 -101 81 -101s81 38 81 101v334h78v-500h-71v72z" />
    <glyph glyph-name="percent" unicode="%" horiz-adv-x="616" 
d="M136 704c68 0 100 -46 100 -113v-221c0 -68 -32 -113 -100 -113s-100 45 -100 113v221c0 67 32 113 100 113zM467 700l-276 -700h-47l276 700h47zM136 658c-36 0 -50 -26 -50 -64v-228c0 -38 14 -63 50 -63c35 0 50 25 50 63v228c0 38 -15 64 -50 64zM480 442
c69 0 100 -45 100 -112v-220c0 -68 -31 -113 -100 -113c-68 0 -100 45 -100 113v220c0 67 32 112 100 112zM480 396c-35 0 -50 -25 -50 -63v-227c0 -38 15 -64 50 -64s50 26 50 64v227c0 38 -15 63 -50 63z" />
    <glyph glyph-name="perthousand" unicode="&#x2030;" horiz-adv-x="867" 
d="M136 704c68 0 100 -46 100 -113v-221c0 -68 -32 -113 -100 -113s-100 45 -100 113v221c0 67 32 113 100 113zM467 700l-276 -700h-47l276 700h47zM136 658c-36 0 -50 -26 -50 -64v-228c0 -38 14 -63 50 -63c35 0 50 25 50 63v228c0 38 -15 64 -50 64zM480 442
c69 0 100 -45 100 -112v-220c0 -68 -31 -113 -100 -113c-68 0 -100 45 -100 113v220c0 67 32 112 100 112zM731 442c69 0 100 -45 100 -112v-220c0 -68 -31 -113 -100 -113c-68 0 -100 45 -100 113v220c0 67 32 112 100 112zM480 396c-35 0 -50 -25 -50 -63v-227
c0 -38 15 -64 50 -64s50 26 50 64v227c0 38 -15 63 -50 63zM731 396c-35 0 -49 -25 -49 -63v-227c0 -38 14 -64 49 -64s50 26 50 64v227c0 38 -15 63 -50 63z" />
    <glyph glyph-name="at" unicode="@" horiz-adv-x="689" 
d="M391 735c201 0 273 -123 273 -288c0 -198 -90 -312 -183 -312c-48 0 -76 24 -79 68c-20 -44 -54 -69 -103 -68c-75 1 -101 64 -92 153l11 100c9 91 50 148 124 146c45 0 74 -24 86 -66l7 62h68l-30 -287c-3 -23 4 -43 29 -43c77 0 103 147 102 245
c0 139 -65 229 -215 229c-200 0 -293 -166 -293 -390c0 -173 79 -277 253 -277c70 0 134 14 197 63l-6 -69c-61 -42 -125 -54 -195 -54c-220 0 -316 135 -316 341c0 238 114 447 362 447zM362 466c-46 1 -71 -31 -77 -85l-9 -90c-6 -52 10 -89 57 -90c46 -1 71 35 77 89
l10 96c5 47 -14 80 -58 80z" />
    <glyph glyph-name="ampersand" unicode="&#x26;" horiz-adv-x="408" 
d="M208 629c-59 0 -90 -31 -90 -99v-35c0 -60 30 -93 81 -95h79v78h77v-78h34v-70h-34v-241c0 -35 1 -62 15 -89h-79c-8 17 -12 31 -13 61c-20 -45 -59 -68 -110 -68c-87 0 -127 62 -127 161v68c0 69 25 124 83 146c-57 20 -83 73 -83 143v16c0 111 54 173 165 173h113v-71
h-111zM205 330c-58 -2 -87 -38 -87 -106v-64c0 -62 27 -96 81 -96c45 0 77 26 79 80v186h-73z" />
    <glyph glyph-name="paragraph" unicode="&#xb6;" horiz-adv-x="396" 
d="M203 643v-706h-57l1 340c-88 2 -128 67 -128 168v86c0 106 43 169 151 169h180v-763h-57v706h-90z" />
    <glyph glyph-name="section" unicode="&#xa7;" 
d="M194 707c96 0 154 -53 154 -132v-27h-74v17c0 47 -32 77 -78 77c-45 0 -81 -23 -81 -71c-2 -102 234 -75 234 -253c0 -57 -33 -102 -83 -127c46 -25 85 -61 84 -129c-1 -78 -63 -132 -156 -132c-97 0 -157 51 -157 132v41h74v-31c0 -49 35 -77 81 -77c43 0 79 24 80 70
c2 104 -235 75 -234 252c0 58 36 103 87 126c-47 27 -88 61 -88 131c1 80 61 133 157 133zM191 412c-43 -7 -79 -44 -79 -92c-1 -54 45 -78 89 -98c42 10 74 46 74 94c0 50 -39 75 -84 96z" />
    <glyph glyph-name="copyright" unicode="&#xa9;" horiz-adv-x="742" 
d="M371 704c198 0 344 -150 344 -354s-146 -354 -344 -354s-344 150 -344 354s146 354 344 354zM371 654c-169 0 -293 -130 -293 -304s124 -304 293 -304s293 130 293 304s-124 304 -293 304zM367 570c74 0 109 -49 109 -124v-30h-52v34c0 43 -17 69 -56 69
c-38 0 -56 -26 -56 -69v-200c0 -43 18 -69 56 -69c39 0 56 26 56 69v49h52v-46c0 -74 -35 -123 -109 -123c-75 0 -109 49 -109 123v193c0 75 34 124 109 124z" />
    <glyph glyph-name="registered" unicode="&#xae;" horiz-adv-x="742" 
d="M371 704c198 0 344 -150 344 -354s-146 -354 -344 -354s-344 150 -344 354s146 354 344 354zM371 654c-169 0 -293 -130 -293 -304s124 -304 293 -304s293 130 293 304s-124 304 -293 304zM376 564c76 0 109 -39 109 -112v-10c0 -52 -17 -86 -58 -101
c42 -14 58 -49 58 -100v-46c0 -22 1 -42 11 -59h-57c-6 14 -8 26 -8 59v46c0 56 -27 72 -73 72h-37v-177h-54v428h109zM366 364c41 0 64 16 64 66v16c0 44 -15 68 -57 68h-52v-150h45z" />
    <glyph glyph-name="uni2117" unicode="&#x2117;" horiz-adv-x="742" 
d="M371 704c198 0 344 -150 344 -354c0 -203 -146 -354 -344 -354s-344 151 -344 354c0 204 146 354 344 354zM371 654c-169 0 -293 -130 -293 -304s124 -304 293 -304s293 130 293 304s-124 304 -293 304zM393 555c77 0 108 -41 108 -113v-46c0 -76 -34 -113 -112 -113h-51
v-156h-54v428h109zM386 334c43 0 61 21 61 68v34c0 43 -15 69 -57 69h-52v-171h48z" />
    <glyph glyph-name="trademark" unicode="&#x2122;" horiz-adv-x="583" 
d="M94 344v310h-82v46h213v-46h-81v-310h-50zM436 346h-48l-73 277v-279h-45v356h70l73 -278l70 278h70v-356h-48v281z" />
    <glyph glyph-name="degree" unicode="&#xb0;" horiz-adv-x="219" 
d="M109 708c48 0 87 -38 87 -86s-39 -86 -87 -86c-47 0 -86 38 -86 86s39 86 86 86zM109 671c-27 0 -49 -21 -49 -49c0 -27 22 -49 49 -49s50 22 50 49c0 28 -23 49 -50 49z" />
    <glyph glyph-name="bar" unicode="|" horiz-adv-x="373" 
d="M222 744v-788h-64v788h64z" />
    <glyph glyph-name="brokenbar" unicode="&#xa6;" horiz-adv-x="374" 
d="M158 744h64v-334h-64v334zM158 290h64v-334h-64v334z" />
    <glyph glyph-name="dagger" unicode="&#x2020;" horiz-adv-x="394" 
d="M229 513h136v-61h-136v-517h-64v517h-135v61h135v187h64v-187z" />
    <glyph glyph-name="daggerdbl" unicode="&#x2021;" horiz-adv-x="394" 
d="M229 513h136v-61h-136v-268h136v-61h-136v-188h-64v188h-135v61h135v268h-135v61h135v187h64v-187z" />
    <glyph glyph-name="uni02BC" unicode="&#x2bc;" horiz-adv-x="160" 
d="M81 515h-32l25 88h-29v97h75v-89z" />
    <glyph glyph-name="uniF6C3" unicode="&#xf6c3;" horiz-adv-x="0" 
d="M102 -177h-29l23 56h-25v88h66v-81z" />
    <glyph glyph-name="acute" unicode="&#xb4;" horiz-adv-x="223" 
d="M178 848l-93 -103h-54l70 103h77z" />
    <glyph glyph-name="breve" unicode="&#x2d8;" horiz-adv-x="252" 
d="M231 834c-1 -62 -40 -101 -106 -101c-65 0 -102 39 -103 101h47c2 -39 25 -52 56 -52c33 0 56 13 58 52h48z" />
    <glyph glyph-name="caron" unicode="&#x2c7;" horiz-adv-x="250" 
d="M72 848l53 -60l53 60h68l-86 -100h-69l-87 100h68z" />
    <glyph glyph-name="cedilla" unicode="&#xb8;" horiz-adv-x="249" 
d="M143 -39c45 0 74 -11 74 -49c0 -51 -43 -61 -94 -61c-49 0 -92 14 -92 59v8h53v-7c0 -22 21 -29 39 -30c21 0 40 9 40 33c0 26 -21 32 -47 32h-8v63h35v-48z" />
    <glyph glyph-name="circumflex" unicode="&#x2c6;" horiz-adv-x="250" 
d="M72 748h-68l87 100h69l86 -100h-68l-53 59z" />
    <glyph glyph-name="dieresis" unicode="&#xa8;" horiz-adv-x="219" 
d="M103 831v-90h-68v90h68zM184 831v-90h-68v90h68z" />
    <glyph glyph-name="dotaccent" unicode="&#x2d9;" horiz-adv-x="198" 
d="M133 833v-90h-68v90h68z" />
    <glyph glyph-name="grave" unicode="`" horiz-adv-x="223" 
d="M124 848l69 -103h-57l-93 103h81z" />
    <glyph glyph-name="hungarumlaut" unicode="&#x2dd;" horiz-adv-x="242" 
d="M126 848l-80 -103h-50l58 103h72zM233 848l-80 -103h-49l57 103h72z" />
    <glyph glyph-name="macron" unicode="&#xaf;" horiz-adv-x="251" 
d="M232 800v-56h-212v56h212z" />
    <glyph glyph-name="ogonek" unicode="&#x2db;" horiz-adv-x="227" 
d="M145 3c-28 -21 -41 -52 -40 -72c0 -21 18 -30 37 -30s29 4 40 9v-41c-20 -9 -38 -12 -62 -12c-44 0 -75 18 -75 56c-1 33 24 66 66 90h34z" />
    <glyph glyph-name="ring" unicode="&#x2da;" horiz-adv-x="234" 
d="M117 887c41 0 73 -32 73 -73s-32 -73 -73 -73s-74 32 -74 73s33 73 74 73zM117 850c-21 0 -37 -15 -37 -36s16 -36 37 -36c20 0 36 15 36 36s-16 36 -36 36z" />
    <glyph glyph-name="tilde" unicode="&#x2dc;" horiz-adv-x="256" 
d="M250 802c-15 -40 -41 -58 -71 -58c-39 0 -61 30 -92 29c-18 0 -31 -7 -42 -29l-39 26c17 41 43 58 74 58c40 0 62 -30 92 -29c17 0 29 8 40 29z" />
    <glyph glyph-name="NULL" horiz-adv-x="0" 
 />
    <glyph glyph-name="Edotaaccent" horiz-adv-x="405" 
 />
    <glyph glyph-name="edotaaccent" horiz-adv-x="405" 
 />
    <glyph glyph-name="lcute" horiz-adv-x="405" 
 />
    </font>
</defs>
</svg>
